# MagicaVoxel @ Ephtracy

# group
o 

# material
mtllib 2-10.mtl
usemtl palette

# normals
vn -1 0 0
vn 1 0 0
vn 0 0 1
vn 0 0 -1
vn 0 -1 0
vn 0 1 0

# texcoords
vt 0.900391 0.5
vt 0.904297 0.5
vt 0.958984 0.5

# verts
v -0.5 -0.3 0.4
v -0.5 -0.3 0.2
v -0.5 -0.2 0.4
v -0.5 -0.2 0.2
v -0.5 -0.1 0.3
v -0.5 -0.1 0.2
v -0.5 0 0.4
v -0.5 0 0.3
v -0.5 0.1 0.4
v -0.5 0.1 0.3
v -0.4 -0.3 0.6
v -0.4 -0.3 0.4
v -0.4 -0.3 0.2
v -0.4 -0.3 0.1
v -0.4 -0.2 0.6
v -0.4 -0.2 0.4
v -0.4 -0.2 0.2
v -0.4 -0.2 0.1
v -0.4 -0.1 0.3
v -0.4 -0.1 0.2
v -0.4 -0.1 0.1
v -0.4 0 0.3
v -0.4 0 0.2
v -0.4 0.1 0.3
v -0.4 0.1 0.2
v -0.3 -0.3 0.7
v -0.3 -0.3 0.6
v -0.3 -0.3 0.1
v -0.3 -0.3 0
v -0.3 -0.2 0.7
v -0.3 -0.2 0.6
v -0.3 -0.2 0.5
v -0.3 -0.2 0.4
v -0.3 -0.2 0.1
v -0.3 -0.2 0
v -0.3 -0.1 0.5
v -0.3 -0.1 0.4
v -0.2 -0.3 -0.2
v -0.2 -0.3 -0.7
v -0.2 -0.2 -0.2
v -0.2 -0.2 -0.6
v -0.2 -0.2 -0.7
v -0.2 -0.1 -0.6
v -0.2 -0.1 -0.7
v -0.1 -0.3 -0.1
v -0.1 -0.3 -0.2
v -0.1 -0.3 -0.7
v -0.1 -0.3 -0.8
v -0.1 -0.2 -0.2
v -0.1 -0.2 -0.3
v -0.1 -0.2 -0.6
v -0.1 -0.2 -0.7
v -0.1 -0.1 -0.2
v -0.1 -0.1 -0.3
v -0.1 -0.1 -0.6
v -0.1 -0.1 -0.7
v -0.1 -0.1 -0.8
v -0.1 0 -0.1
v -0.1 0 -0.2
v -0.1 0 -0.3
v -0.1 0 -0.7
v -0.1 0.1 -0.2
v -0.1 0.1 -0.3
v -0.1 0.1 -0.7
v -0.1 0.2 -0.2
v -0.1 0.2 -0.3
v 0.1 -0.1 -0.7
v 0.1 -0.1 -0.8
v 0.1 0 -0.7
v 0.1 0 -0.8
v 0.1 0.1 -0.3
v 0.1 0.1 -0.4
v 0.1 0.1 -0.6
v 0.1 0.1 -0.7
v 0.1 0.1 -0.8
v 0.1 0.2 -0.2
v 0.1 0.2 -0.3
v 0.1 0.2 -0.6
v 0.1 0.3 -0.2
v 0.1 0.3 -0.6
v 0.4 0.1 -0.4
v 0.4 0.1 -0.5
v 0.4 0.2 -0.4
v 0.4 0.2 -0.5
v -0.1 -0.3 0.7
v -0.1 -0.3 0.5
v -0.1 -0.3 0.1
v -0.1 -0.3 0
v -0.1 -0.2 0.7
v -0.1 -0.2 0.5
v -0.1 -0.2 0.4
v -0.1 -0.2 0.2
v -0.1 -0.2 0.1
v -0.1 -0.2 0
v -0.1 -0.1 0.5
v -0.1 -0.1 0.4
v -0.1 -0.1 0.2
v -0.1 -0.1 0.1
v -0.1 0 0.4
v -0.1 0 0.2
v -0.1 0.1 0.4
v -0.1 0.1 0.2
v 0 -0.3 0.2
v 0 -0.3 0.1
v 0 -0.2 0.3
v 0 -0.2 0.2
v 0 -0.2 0.1
v 0 -0.2 -0.7
v 0 -0.2 -0.8
v 0 -0.1 0.3
v 0 -0.1 0.2
v 0 -0.1 -0.7
v 0 -0.1 -0.8
v 0.1 -0.3 0.5
v 0.1 -0.3 0.2
v 0.1 -0.2 0.5
v 0.1 -0.2 0.4
v 0.1 -0.2 0.3
v 0.1 -0.2 0.2
v 0.1 -0.1 0.4
v 0.1 -0.1 0.3
v 0.2 -0.3 -0.7
v 0.2 -0.3 -0.8
v 0.2 -0.2 -0.7
v 0.2 -0.2 -0.8
v 0.2 0 -0.6
v 0.2 0 -0.8
v 0.2 0.1 -0.5
v 0.2 0.1 -0.6
v 0.2 0.1 -0.8
v 0.2 0.2 -0.5
v 0.2 0.2 -0.6
v 0.2 0.3 -0.5
v 0.2 0.3 -0.6
v 0.3 0 -0.5
v 0.3 0 -0.6
v 0.3 0.1 -0.2
v 0.3 0.1 -0.3
v 0.3 0.1 -0.4
v 0.3 0.1 -0.5
v 0.3 0.1 -0.6
v 0.3 0.2 -0.2
v 0.3 0.2 -0.3
v 0.3 0.2 -0.4
v 0.3 0.2 -0.5
v 0.3 0.3 -0.2
v 0.3 0.3 -0.3
v 0.3 0.3 -0.4
v 0.3 0.3 -0.5
v 0.4 -0.3 -0.6
v 0.4 -0.3 -0.7
v 0.4 -0.1 -0.1
v 0.4 -0.1 -0.2
v 0.4 -0.1 -0.5
v 0.4 -0.1 -0.6
v 0.4 -0.1 -0.7
v 0.4 -0.1 -0.8
v 0.4 0 -0.1
v 0.4 0 -0.2
v 0.4 0 -0.4
v 0.4 0 -0.5
v 0.4 0 -0.8
v 0.4 0.1 -0.2
v 0.4 0.1 -0.3
v 0.4 0.2 -0.3
v 0.4 0.2 -0.4
v 0.4 0.3 -0.3
v 0.4 0.3 -0.4
v 0.5 -0.3 -0.1
v 0.5 -0.3 -0.3
v 0.5 -0.3 -0.5
v 0.5 -0.3 -0.6
v 0.5 -0.2 -0.3
v 0.5 -0.2 -0.4
v 0.5 -0.2 -0.5
v 0.5 -0.1 -0.1
v 0.5 -0.1 -0.2
v 0.5 -0.1 -0.5
v 0.5 -0.1 -0.6
v 0.5 0 -0.2
v 0.5 0 -0.4
v 0.5 0.2 -0.4
v 0.5 0.2 -0.5
v 0.6 -0.3 -0.3
v 0.6 -0.3 -0.4
v 0.6 -0.3 -0.5
v 0.6 -0.2 -0.3
v 0.6 -0.2 -0.4
v 0.6 -0.2 -0.5
v -0.3 -0.3 0.7
v -0.3 -0.2 0.7
v -0.1 -0.3 0.7
v -0.1 -0.2 0.7
v -0.4 -0.3 0.6
v -0.4 -0.2 0.6
v -0.3 -0.3 0.6
v -0.3 -0.2 0.6
v -0.3 -0.2 0.5
v -0.3 -0.1 0.5
v -0.1 -0.3 0.5
v -0.1 -0.2 0.5
v -0.1 -0.1 0.5
v 0.1 -0.3 0.5
v 0.1 -0.2 0.5
v -0.5 -0.3 0.4
v -0.5 -0.2 0.4
v -0.5 0 0.4
v -0.5 0.1 0.4
v -0.4 -0.3 0.4
v -0.4 -0.2 0.4
v -0.3 -0.2 0.4
v -0.3 -0.1 0.4
v -0.3 0 0.4
v -0.3 0.1 0.4
v -0.2 0 0.4
v -0.2 0.1 0.4
v -0.1 -0.2 0.4
v -0.1 -0.1 0.4
v -0.1 0 0.4
v -0.1 0.1 0.4
v 0 -0.2 0.4
v 0 -0.1 0.4
v 0.1 -0.2 0.4
v 0.1 -0.1 0.4
v -0.1 -0.3 -0.1
v -0.1 0 -0.1
v 0 -0.1 -0.1
v 0 0 -0.1
v 0.1 -0.2 -0.1
v 0.1 -0.1 -0.1
v 0.2 -0.3 -0.1
v 0.2 -0.2 -0.1
v 0.4 -0.1 -0.1
v 0.4 0 -0.1
v 0.5 -0.3 -0.1
v 0.5 -0.1 -0.1
v -0.2 -0.3 -0.2
v -0.2 -0.2 -0.2
v -0.1 -0.3 -0.2
v -0.1 -0.2 -0.2
v -0.1 0 -0.2
v -0.1 0.1 -0.2
v -0.1 0.2 -0.2
v 0 0 -0.2
v 0.1 0.1 -0.2
v 0.1 0.2 -0.2
v 0.1 0.3 -0.2
v 0.3 0.1 -0.2
v 0.3 0.2 -0.2
v 0.3 0.3 -0.2
v 0.4 -0.1 -0.2
v 0.4 0 -0.2
v 0.4 0.1 -0.2
v 0.5 -0.1 -0.2
v 0.5 0 -0.2
v 0.3 0.1 -0.3
v 0.3 0.2 -0.3
v 0.3 0.3 -0.3
v 0.4 0.1 -0.3
v 0.4 0.2 -0.3
v 0.4 0.3 -0.3
v 0.5 -0.3 -0.3
v 0.5 -0.2 -0.3
v 0.6 -0.3 -0.3
v 0.6 -0.2 -0.3
v 0.4 0 -0.4
v 0.4 0.2 -0.4
v 0.5 0 -0.4
v 0.5 0.2 -0.4
v -0.2 -0.2 -0.6
v -0.2 -0.1 -0.6
v -0.1 -0.2 -0.6
v -0.1 -0.1 -0.6
v -0.5 -0.1 0.3
v -0.5 0 0.3
v -0.5 0.1 0.3
v -0.4 -0.1 0.3
v -0.4 0 0.3
v -0.4 0.1 0.3
v 0 -0.2 0.3
v 0 -0.1 0.3
v 0.1 -0.2 0.3
v 0.1 -0.1 0.3
v -0.5 -0.3 0.2
v -0.5 -0.2 0.2
v -0.5 -0.1 0.2
v -0.4 -0.3 0.2
v -0.4 -0.2 0.2
v -0.4 -0.1 0.2
v -0.4 0 0.2
v -0.4 0.1 0.2
v -0.2 -0.1 0.2
v -0.1 -0.2 0.2
v -0.1 -0.1 0.2
v -0.1 0 0.2
v -0.1 0.1 0.2
v 0 -0.3 0.2
v 0 -0.2 0.2
v 0 -0.1 0.2
v 0.1 -0.3 0.2
v 0.1 -0.2 0.2
v -0.4 -0.3 0.1
v -0.4 -0.2 0.1
v -0.4 -0.1 0.1
v -0.3 -0.3 0.1
v -0.3 -0.2 0.1
v -0.2 -0.2 0.1
v -0.2 -0.1 0.1
v -0.1 -0.3 0.1
v -0.1 -0.2 0.1
v -0.1 -0.1 0.1
v 0 -0.3 0.1
v 0 -0.2 0.1
v -0.3 -0.3 0
v -0.3 -0.2 0
v -0.1 -0.3 0
v -0.1 -0.2 0
v -0.1 0.1 -0.3
v -0.1 0.2 -0.3
v 0 0.1 -0.3
v 0.1 0.1 -0.3
v 0.1 0.2 -0.3
v 0.3 0.1 -0.4
v 0.3 0.2 -0.4
v 0.3 0.3 -0.4
v 0.4 0.1 -0.4
v 0.4 0.2 -0.4
v 0.4 0.3 -0.4
v 0.2 0.1 -0.5
v 0.2 0.2 -0.5
v 0.2 0.3 -0.5
v 0.3 0 -0.5
v 0.3 0.1 -0.5
v 0.3 0.2 -0.5
v 0.3 0.3 -0.5
v 0.4 -0.1 -0.5
v 0.4 0 -0.5
v 0.4 0.1 -0.5
v 0.4 0.2 -0.5
v 0.5 -0.3 -0.5
v 0.5 -0.2 -0.5
v 0.5 -0.1 -0.5
v 0.5 0.2 -0.5
v 0.6 -0.3 -0.5
v 0.6 -0.2 -0.5
v 0.1 0.1 -0.6
v 0.1 0.2 -0.6
v 0.1 0.3 -0.6
v 0.2 0 -0.6
v 0.2 0.1 -0.6
v 0.2 0.2 -0.6
v 0.2 0.3 -0.6
v 0.3 0 -0.6
v 0.3 0.1 -0.6
v 0.4 -0.3 -0.6
v 0.4 -0.1 -0.6
v 0.5 -0.3 -0.6
v 0.5 -0.1 -0.6
v -0.2 -0.3 -0.7
v -0.2 -0.2 -0.7
v -0.2 -0.1 -0.7
v -0.1 -0.3 -0.7
v -0.1 -0.2 -0.7
v -0.1 -0.1 -0.7
v -0.1 0 -0.7
v -0.1 0.1 -0.7
v 0 -0.2 -0.7
v 0 -0.1 -0.7
v 0.1 -0.1 -0.7
v 0.1 0 -0.7
v 0.1 0.1 -0.7
v 0.2 -0.3 -0.7
v 0.2 -0.2 -0.7
v 0.2 -0.1 -0.7
v 0.4 -0.3 -0.7
v 0.4 -0.1 -0.7
v -0.1 -0.3 -0.8
v -0.1 -0.1 -0.8
v 0 -0.2 -0.8
v 0 -0.1 -0.8
v 0.1 -0.1 -0.8
v 0.1 0 -0.8
v 0.1 0.1 -0.8
v 0.2 -0.3 -0.8
v 0.2 -0.2 -0.8
v 0.2 -0.1 -0.8
v 0.2 0 -0.8
v 0.2 0.1 -0.8
v 0.4 -0.1 -0.8
v 0.4 0 -0.8
v -0.3 -0.3 0.7
v -0.1 -0.3 0.7
v -0.4 -0.3 0.6
v -0.3 -0.3 0.6
v -0.3 -0.3 0.5
v -0.1 -0.3 0.5
v 0.1 -0.3 0.5
v -0.5 -0.3 0.4
v -0.4 -0.3 0.4
v -0.3 -0.3 0.4
v -0.1 -0.3 0.4
v -0.5 -0.3 0.2
v -0.4 -0.3 0.2
v 0 -0.3 0.2
v 0.1 -0.3 0.2
v -0.4 -0.3 0.1
v -0.3 -0.3 0.1
v -0.1 -0.3 0.1
v 0 -0.3 0.1
v -0.3 -0.3 0
v -0.1 -0.3 0
v -0.1 -0.3 -0.1
v 0.2 -0.3 -0.1
v 0.5 -0.3 -0.1
v -0.2 -0.3 -0.2
v -0.1 -0.3 -0.2
v 0.2 -0.3 -0.2
v 0.5 -0.3 -0.3
v 0.6 -0.3 -0.3
v 0.5 -0.3 -0.4
v 0.6 -0.3 -0.4
v 0.4 -0.3 -0.5
v 0.5 -0.3 -0.5
v 0.6 -0.3 -0.5
v 0.2 -0.3 -0.6
v 0.4 -0.3 -0.6
v 0.5 -0.3 -0.6
v -0.2 -0.3 -0.7
v -0.1 -0.3 -0.7
v 0.2 -0.3 -0.7
v 0.4 -0.3 -0.7
v -0.1 -0.3 -0.8
v 0.2 -0.3 -0.8
v 0.1 -0.1 -0.7
v 0.2 -0.1 -0.7
v 0.4 -0.1 -0.7
v 0.1 -0.1 -0.8
v 0.2 -0.1 -0.8
v 0.4 -0.1 -0.8
v -0.3 -0.2 0.7
v -0.1 -0.2 0.7
v -0.4 -0.2 0.6
v -0.3 -0.2 0.6
v -0.3 -0.2 0.5
v -0.1 -0.2 0.5
v 0.1 -0.2 0.5
v -0.4 -0.2 0.4
v -0.3 -0.2 0.4
v -0.1 -0.2 0.4
v 0 -0.2 0.4
v 0.1 -0.2 0.4
v 0 -0.2 0.3
v 0.1 -0.2 0.3
v -0.1 -0.2 0.2
v 0 -0.2 0.2
v 0.1 -0.2 0.2
v -0.3 -0.2 0.1
v -0.2 -0.2 0.1
v -0.1 -0.2 0.1
v 0 -0.2 0.1
v -0.3 -0.2 0
v -0.1 -0.2 0
v -0.2 -0.2 -0.2
v -0.1 -0.2 -0.2
v -0.1 -0.2 -0.3
v 0.5 -0.2 -0.3
v 0.6 -0.2 -0.3
v 0.5 -0.2 -0.4
v 0.6 -0.2 -0.4
v 0.5 -0.2 -0.5
v 0.6 -0.2 -0.5
v -0.2 -0.2 -0.6
v -0.1 -0.2 -0.6
v 0 -0.2 -0.7
v 0.2 -0.2 -0.7
v 0 -0.2 -0.8
v 0.2 -0.2 -0.8
v -0.3 -0.1 0.5
v -0.1 -0.1 0.5
v -0.3 -0.1 0.4
v -0.1 -0.1 0.4
v 0 -0.1 0.4
v 0.1 -0.1 0.4
v -0.5 -0.1 0.3
v -0.4 -0.1 0.3
v 0 -0.1 0.3
v 0.1 -0.1 0.3
v -0.5 -0.1 0.2
v -0.4 -0.1 0.2
v -0.2 -0.1 0.2
v -0.1 -0.1 0.2
v 0 -0.1 0.2
v -0.4 -0.1 0.1
v -0.2 -0.1 0.1
v -0.1 -0.1 0.1
v 0.4 -0.1 -0.1
v 0.5 -0.1 -0.1
v 0.4 -0.1 -0.2
v 0.5 -0.1 -0.2
v 0.4 -0.1 -0.5
v 0.5 -0.1 -0.5
v -0.2 -0.1 -0.6
v -0.1 -0.1 -0.6
v 0.4 -0.1 -0.6
v 0.5 -0.1 -0.6
v -0.2 -0.1 -0.7
v -0.1 -0.1 -0.7
v 0 -0.1 -0.7
v -0.1 -0.1 -0.8
v 0 -0.1 -0.8
v -0.1 0 -0.1
v 0 0 -0.1
v 0.4 0 -0.1
v -0.1 0 -0.2
v 0 0 -0.2
v 0.4 0 -0.2
v 0.5 0 -0.2
v 0.4 0 -0.4
v 0.5 0 -0.4
v 0.3 0 -0.5
v 0.4 0 -0.5
v 0.2 0 -0.6
v 0.3 0 -0.6
v 0.2 0 -0.8
v 0.4 0 -0.8
v -0.5 0.1 0.4
v -0.3 0.1 0.4
v -0.2 0.1 0.4
v -0.1 0.1 0.4
v -0.5 0.1 0.3
v -0.4 0.1 0.3
v -0.3 0.1 0.3
v -0.2 0.1 0.3
v -0.4 0.1 0.2
v -0.1 0.1 0.2
v 0.3 0.1 -0.2
v 0.4 0.1 -0.2
v -0.1 0.1 -0.3
v 0 0.1 -0.3
v 0.1 0.1 -0.3
v 0.3 0.1 -0.3
v 0.4 0.1 -0.3
v 0 0.1 -0.4
v 0.1 0.1 -0.4
v 0.3 0.1 -0.4
v 0.4 0.1 -0.4
v 0.2 0.1 -0.5
v 0.3 0.1 -0.5
v 0.4 0.1 -0.5
v 0.1 0.1 -0.6
v 0.2 0.1 -0.6
v 0.3 0.1 -0.6
v -0.1 0.1 -0.7
v 0.1 0.1 -0.7
v 0.1 0.1 -0.8
v 0.2 0.1 -0.8
v -0.1 0.2 -0.2
v 0.1 0.2 -0.2
v -0.1 0.2 -0.3
v 0.1 0.2 -0.3
v 0.4 0.2 -0.4
v 0.5 0.2 -0.4
v 0.4 0.2 -0.5
v 0.5 0.2 -0.5
v 0.1 0.3 -0.2
v 0.3 0.3 -0.2
v 0.3 0.3 -0.3
v 0.4 0.3 -0.3
v 0.3 0.3 -0.4
v 0.4 0.3 -0.4
v 0.2 0.3 -0.5
v 0.3 0.3 -0.5
v 0.1 0.3 -0.6
v 0.2 0.3 -0.6

# faces
f 3/2/1 2/2/1 1/2/1
f 4/2/1 2/2/1 3/2/1
f 5/1/1 4/1/1 3/1/1
f 6/1/1 4/1/1 5/1/1
f 7/1/1 5/1/1 3/1/1
f 8/1/1 5/1/1 7/1/1
f 9/3/1 8/3/1 7/3/1
f 10/3/1 8/3/1 9/3/1
f 15/2/1 12/2/1 11/2/1
f 16/2/1 12/2/1 15/2/1
f 17/2/1 14/2/1 13/2/1
f 18/2/1 14/2/1 17/2/1
f 20/1/1 18/1/1 17/1/1
f 21/1/1 18/1/1 20/1/1
f 22/1/1 20/1/1 19/1/1
f 23/1/1 20/1/1 22/1/1
f 24/3/1 23/3/1 22/3/1
f 25/3/1 23/3/1 24/3/1
f 30/2/1 27/2/1 26/2/1
f 31/2/1 27/2/1 30/2/1
f 34/2/1 29/2/1 28/2/1
f 35/2/1 29/2/1 34/2/1
f 36/1/1 33/1/1 32/1/1
f 37/1/1 33/1/1 36/1/1
f 40/2/1 39/2/1 38/2/1
f 41/2/1 39/2/1 40/2/1
f 42/2/1 39/2/1 41/2/1
f 43/1/1 42/1/1 41/1/1
f 44/1/1 42/1/1 43/1/1
f 49/2/1 46/2/1 45/2/1
f 52/2/1 48/2/1 47/2/1
f 53/2/1 49/2/1 45/2/1
f 53/2/1 50/2/1 49/2/1
f 54/1/1 51/1/1 50/1/1
f 54/2/1 50/2/1 53/2/1
f 55/1/1 51/1/1 54/1/1
f 56/2/1 48/2/1 52/2/1
f 57/2/1 48/2/1 56/2/1
f 58/2/1 53/2/1 45/2/1
f 59/1/1 55/1/1 54/1/1
f 59/2/1 53/2/1 58/2/1
f 59/1/1 54/1/1 53/1/1
f 59/1/1 56/1/1 55/1/1
f 60/1/1 56/1/1 59/1/1
f 61/1/1 56/1/1 60/1/1
f 62/1/1 60/1/1 59/1/1
f 63/3/1 61/3/1 60/3/1
f 63/1/1 60/1/1 62/1/1
f 64/3/1 61/3/1 63/3/1
f 65/2/1 63/2/1 62/2/1
f 66/2/1 63/2/1 65/2/1
f 69/1/1 68/1/1 67/1/1
f 70/1/1 68/1/1 69/1/1
f 74/3/1 70/3/1 69/3/1
f 75/3/1 70/3/1 74/3/1
f 77/1/1 73/1/1 72/1/1
f 77/1/1 72/1/1 71/1/1
f 78/1/1 73/1/1 77/1/1
f 79/3/1 77/3/1 76/3/1
f 79/3/1 78/3/1 77/3/1
f 80/3/1 78/3/1 79/3/1
f 83/1/1 82/1/1 81/1/1
f 84/1/1 82/1/1 83/1/1
f 85/2/2 86/2/2 89/2/2
f 89/2/2 86/2/2 90/2/2
f 87/2/2 88/2/2 93/2/2
f 93/2/2 88/2/2 94/2/2
f 90/1/2 91/1/2 95/1/2
f 95/1/2 91/1/2 96/1/2
f 92/2/2 93/2/2 97/2/2
f 97/2/2 93/2/2 98/2/2
f 96/1/2 97/1/2 99/1/2
f 99/1/2 97/1/2 100/1/2
f 99/3/2 100/3/2 101/3/2
f 101/3/2 100/3/2 102/3/2
f 103/2/2 104/2/2 106/2/2
f 106/2/2 104/2/2 107/2/2
f 105/2/2 106/2/2 110/2/2
f 110/2/2 106/2/2 111/2/2
f 108/2/2 109/2/2 112/2/2
f 112/2/2 109/2/2 113/2/2
f 114/2/2 115/2/2 116/2/2
f 116/2/2 115/2/2 117/2/2
f 117/2/2 115/2/2 118/2/2
f 118/2/2 115/2/2 119/2/2
f 117/1/2 118/1/2 120/1/2
f 120/1/2 118/1/2 121/1/2
f 122/2/2 123/2/2 124/2/2
f 124/2/2 123/2/2 125/2/2
f 126/3/2 127/3/2 129/3/2
f 129/3/2 127/3/2 130/3/2
f 128/1/2 129/1/2 131/1/2
f 131/1/2 129/1/2 132/1/2
f 131/3/2 132/3/2 133/3/2
f 133/3/2 132/3/2 134/3/2
f 135/2/2 136/2/2 140/2/2
f 140/2/2 136/2/2 141/2/2
f 137/1/2 138/1/2 142/1/2
f 142/1/2 138/1/2 143/1/2
f 139/1/2 140/1/2 144/1/2
f 144/1/2 140/1/2 145/1/2
f 142/3/2 143/3/2 146/3/2
f 146/3/2 143/3/2 147/3/2
f 144/3/2 145/3/2 148/3/2
f 148/3/2 145/3/2 149/3/2
f 150/2/2 151/2/2 155/2/2
f 155/2/2 151/2/2 156/2/2
f 152/1/2 153/1/2 158/1/2
f 158/1/2 153/1/2 159/1/2
f 156/2/2 157/2/2 161/2/2
f 154/2/2 155/2/2 161/2/2
f 155/2/2 156/2/2 161/2/2
f 161/2/2 157/2/2 162/2/2
f 159/1/2 160/1/2 163/1/2
f 163/1/2 160/1/2 164/1/2
f 164/1/2 160/1/2 165/1/2
f 165/1/2 160/1/2 166/1/2
f 165/3/2 166/3/2 167/3/2
f 167/3/2 166/3/2 168/3/2
f 169/1/2 170/1/2 173/1/2
f 171/2/2 172/2/2 175/2/2
f 173/1/2 174/1/2 176/1/2
f 174/1/2 175/1/2 176/1/2
f 169/1/2 173/1/2 176/1/2
f 176/1/2 175/1/2 177/1/2
f 175/2/2 172/2/2 178/2/2
f 177/1/2 175/1/2 178/1/2
f 178/2/2 172/2/2 179/2/2
f 177/1/2 178/1/2 180/1/2
f 180/1/2 178/1/2 181/1/2
f 181/1/2 178/1/2 182/1/2
f 182/1/2 178/1/2 183/1/2
f 184/1/2 185/1/2 187/1/2
f 185/2/2 186/2/2 188/2/2
f 187/1/2 185/1/2 188/1/2
f 188/2/2 186/2/2 189/2/2
f 192/2/3 191/2/3 190/2/3
f 193/2/3 191/2/3 192/2/3
f 196/2/3 195/2/3 194/2/3
f 197/2/3 195/2/3 196/2/3
f 201/1/3 199/1/3 198/1/3
f 202/1/3 199/1/3 201/1/3
f 203/2/3 201/2/3 200/2/3
f 204/2/3 201/2/3 203/2/3
f 209/2/3 206/2/3 205/2/3
f 210/1/3 207/1/3 206/1/3
f 210/2/3 206/2/3 209/2/3
f 211/1/3 207/1/3 210/1/3
f 212/1/3 207/1/3 211/1/3
f 213/3/3 208/3/3 207/3/3
f 213/1/3 207/1/3 212/1/3
f 214/3/3 208/3/3 213/3/3
f 215/1/3 213/1/3 212/1/3
f 215/1/3 214/1/3 213/1/3
f 216/1/3 214/1/3 215/1/3
f 218/1/3 215/1/3 212/1/3
f 219/3/3 216/3/3 215/3/3
f 219/1/3 215/1/3 218/1/3
f 220/3/3 216/3/3 219/3/3
f 221/2/3 218/2/3 217/2/3
f 222/2/3 218/2/3 221/2/3
f 223/1/3 222/1/3 221/1/3
f 224/1/3 222/1/3 223/1/3
f 227/2/3 226/2/3 225/2/3
f 228/2/3 226/2/3 227/2/3
f 229/2/3 227/2/3 225/2/3
f 230/1/3 228/1/3 227/1/3
f 230/2/3 227/2/3 229/2/3
f 231/2/3 229/2/3 225/2/3
f 232/1/3 230/1/3 229/1/3
f 232/2/3 229/2/3 231/2/3
f 233/1/3 228/1/3 230/1/3
f 233/1/3 230/1/3 232/1/3
f 233/1/3 232/1/3 231/1/3
f 234/1/3 228/1/3 233/1/3
f 235/1/3 233/1/3 231/1/3
f 236/1/3 233/1/3 235/1/3
f 239/2/3 238/2/3 237/2/3
f 240/2/3 238/2/3 239/2/3
f 244/1/3 242/1/3 241/1/3
f 245/2/3 243/2/3 242/2/3
f 245/1/3 242/1/3 244/1/3
f 246/2/3 243/2/3 245/2/3
f 248/1/3 245/1/3 244/1/3
f 248/1/3 246/1/3 245/1/3
f 249/3/3 247/3/3 246/3/3
f 249/1/3 246/1/3 248/1/3
f 250/3/3 247/3/3 249/3/3
f 252/1/3 248/1/3 244/1/3
f 253/1/3 248/1/3 252/1/3
f 254/1/3 252/1/3 251/1/3
f 255/1/3 252/1/3 254/1/3
f 259/1/3 257/1/3 256/1/3
f 260/3/3 258/3/3 257/3/3
f 260/1/3 257/1/3 259/1/3
f 261/3/3 258/3/3 260/3/3
f 264/1/3 263/1/3 262/1/3
f 265/1/3 263/1/3 264/1/3
f 268/1/3 267/1/3 266/1/3
f 269/1/3 267/1/3 268/1/3
f 272/1/3 271/1/3 270/1/3
f 273/1/3 271/1/3 272/1/3
f 274/1/4 275/1/4 277/1/4
f 275/3/4 276/3/4 278/3/4
f 277/1/4 275/1/4 278/1/4
f 278/3/4 276/3/4 279/3/4
f 280/1/4 281/1/4 282/1/4
f 282/1/4 281/1/4 283/1/4
f 284/2/4 285/2/4 287/2/4
f 285/1/4 286/1/4 288/1/4
f 287/2/4 285/2/4 288/2/4
f 288/1/4 286/1/4 289/1/4
f 289/1/4 290/1/4 292/1/4
f 292/1/4 290/1/4 294/1/4
f 290/3/4 291/3/4 295/3/4
f 294/1/4 290/1/4 295/1/4
f 295/3/4 291/3/4 296/3/4
f 293/2/4 294/2/4 298/2/4
f 298/2/4 294/2/4 299/2/4
f 297/2/4 298/2/4 300/2/4
f 300/2/4 298/2/4 301/2/4
f 302/2/4 303/2/4 305/2/4
f 303/1/4 304/1/4 306/1/4
f 305/2/4 303/2/4 306/2/4
f 306/1/4 304/1/4 307/1/4
f 307/1/4 304/1/4 308/1/4
f 307/2/4 308/2/4 310/2/4
f 310/2/4 308/2/4 311/2/4
f 309/2/4 310/2/4 312/2/4
f 312/2/4 310/2/4 313/2/4
f 314/2/4 315/2/4 316/2/4
f 316/2/4 315/2/4 317/2/4
f 318/2/4 319/2/4 320/2/4
f 320/2/4 319/2/4 321/2/4
f 321/2/4 319/2/4 322/2/4
f 323/1/4 324/1/4 326/1/4
f 324/3/4 325/3/4 327/3/4
f 326/1/4 324/1/4 327/1/4
f 327/3/4 325/3/4 328/3/4
f 329/1/4 330/1/4 333/1/4
f 330/3/4 331/3/4 334/3/4
f 333/1/4 330/1/4 334/1/4
f 334/3/4 331/3/4 335/3/4
f 332/2/4 333/2/4 337/2/4
f 337/2/4 333/2/4 338/2/4
f 336/1/4 337/1/4 342/1/4
f 337/1/4 338/1/4 342/1/4
f 338/1/4 339/1/4 342/1/4
f 342/1/4 339/1/4 343/1/4
f 340/2/4 341/2/4 344/2/4
f 344/2/4 341/2/4 345/2/4
f 346/1/4 347/1/4 350/1/4
f 347/3/4 348/3/4 351/3/4
f 350/1/4 347/1/4 351/1/4
f 351/3/4 348/3/4 352/3/4
f 349/2/4 350/2/4 353/2/4
f 353/2/4 350/2/4 354/2/4
f 355/2/4 356/2/4 357/2/4
f 357/2/4 356/2/4 358/2/4
f 359/2/4 360/2/4 362/2/4
f 360/1/4 361/1/4 363/1/4
f 362/2/4 360/2/4 363/2/4
f 363/1/4 361/1/4 364/1/4
f 364/1/4 365/1/4 368/1/4
f 368/1/4 365/1/4 369/1/4
f 367/2/4 368/2/4 369/2/4
f 365/3/4 366/3/4 370/3/4
f 369/1/4 365/1/4 370/1/4
f 370/3/4 366/3/4 371/3/4
f 367/2/4 369/2/4 373/2/4
f 373/2/4 369/2/4 374/2/4
f 372/2/4 373/2/4 375/2/4
f 373/2/4 374/2/4 375/2/4
f 375/2/4 374/2/4 376/2/4
f 377/2/4 378/2/4 379/2/4
f 379/2/4 378/2/4 380/2/4
f 377/2/4 379/2/4 384/2/4
f 384/2/4 379/2/4 385/2/4
f 381/1/4 382/1/4 386/1/4
f 382/3/4 383/3/4 387/3/4
f 386/1/4 382/1/4 387/1/4
f 387/3/4 383/3/4 388/3/4
f 386/2/4 387/2/4 389/2/4
f 389/2/4 387/2/4 390/2/4
f 394/2/5 392/2/5 391/2/5
f 395/2/5 392/2/5 394/2/5
f 395/2/5 394/2/5 393/2/5
f 396/2/5 392/2/5 395/2/5
f 399/2/5 395/2/5 393/2/5
f 400/1/5 396/1/5 395/1/5
f 400/2/5 395/2/5 399/2/5
f 401/2/5 397/2/5 396/2/5
f 401/1/5 396/1/5 400/1/5
f 402/2/5 400/2/5 399/2/5
f 402/2/5 399/2/5 398/2/5
f 402/2/5 401/2/5 400/2/5
f 403/2/5 401/2/5 402/2/5
f 404/2/5 397/2/5 401/2/5
f 404/2/5 401/2/5 403/2/5
f 405/2/5 397/2/5 404/2/5
f 406/2/5 404/2/5 403/2/5
f 407/2/5 404/2/5 406/2/5
f 408/2/5 404/2/5 407/2/5
f 409/2/5 404/2/5 408/2/5
f 410/2/5 408/2/5 407/2/5
f 411/2/5 408/2/5 410/2/5
f 416/2/5 413/2/5 412/2/5
f 417/1/5 414/1/5 413/1/5
f 417/2/5 413/2/5 416/2/5
f 418/1/5 417/1/5 416/1/5
f 418/1/5 414/1/5 417/1/5
f 420/1/5 418/1/5 416/1/5
f 420/1/5 419/1/5 418/1/5
f 421/1/5 419/1/5 420/1/5
f 422/1/5 420/1/5 416/1/5
f 423/2/5 421/2/5 420/2/5
f 423/1/5 420/1/5 422/1/5
f 424/2/5 421/2/5 423/2/5
f 425/1/5 422/1/5 416/1/5
f 426/2/5 423/2/5 422/2/5
f 426/1/5 422/1/5 425/1/5
f 427/2/5 423/2/5 426/2/5
f 428/2/5 416/2/5 415/2/5
f 429/1/5 425/1/5 416/1/5
f 429/2/5 416/2/5 428/2/5
f 430/2/5 426/2/5 425/2/5
f 430/1/5 425/1/5 429/1/5
f 431/2/5 426/2/5 430/2/5
f 432/2/5 430/2/5 429/2/5
f 433/2/5 430/2/5 432/2/5
f 437/1/5 435/1/5 434/1/5
f 438/2/5 436/2/5 435/2/5
f 438/1/5 435/1/5 437/1/5
f 439/2/5 436/2/5 438/2/5
f 440/2/6 441/2/6 443/2/6
f 443/2/6 441/2/6 444/2/6
f 442/2/6 443/2/6 444/2/6
f 444/2/6 441/2/6 445/2/6
f 442/2/6 444/2/6 447/2/6
f 447/2/6 444/2/6 448/2/6
f 445/2/6 446/2/6 449/2/6
f 449/2/6 446/2/6 450/2/6
f 450/2/6 446/2/6 451/2/6
f 452/2/6 453/2/6 455/2/6
f 455/2/6 453/2/6 456/2/6
f 454/2/6 455/2/6 459/2/6
f 459/2/6 455/2/6 460/2/6
f 457/2/6 458/2/6 461/2/6
f 458/2/6 459/2/6 461/2/6
f 461/2/6 459/2/6 462/2/6
f 463/2/6 464/2/6 465/2/6
f 466/1/6 467/1/6 468/1/6
f 468/1/6 467/1/6 469/1/6
f 468/2/6 469/2/6 470/2/6
f 470/2/6 469/2/6 471/2/6
f 463/2/6 465/2/6 472/2/6
f 472/2/6 465/2/6 473/2/6
f 474/2/6 475/2/6 476/2/6
f 476/2/6 475/2/6 477/2/6
f 478/1/6 479/1/6 480/1/6
f 480/1/6 479/1/6 481/1/6
f 482/1/6 483/1/6 486/1/6
f 481/2/6 482/2/6 486/2/6
f 486/1/6 483/1/6 487/1/6
f 484/1/6 485/1/6 488/1/6
f 488/1/6 485/1/6 489/1/6
f 481/2/6 486/2/6 491/2/6
f 491/2/6 486/2/6 492/2/6
f 489/1/6 490/1/6 493/1/6
f 490/2/6 491/2/6 494/2/6
f 493/1/6 490/1/6 494/1/6
f 494/2/6 491/2/6 495/2/6
f 496/1/6 497/1/6 498/1/6
f 498/1/6 497/1/6 499/1/6
f 500/2/6 501/2/6 504/2/6
f 504/2/6 501/2/6 505/2/6
f 502/1/6 503/1/6 506/1/6
f 506/1/6 503/1/6 507/1/6
f 507/2/6 508/2/6 509/2/6
f 509/2/6 508/2/6 510/2/6
f 511/2/6 512/2/6 514/2/6
f 512/1/6 513/1/6 515/1/6
f 514/2/6 512/2/6 515/2/6
f 515/1/6 513/1/6 516/1/6
f 516/1/6 517/1/6 518/1/6
f 518/1/6 517/1/6 519/1/6
f 520/2/6 521/2/6 523/2/6
f 522/2/6 523/2/6 524/2/6
f 523/2/6 521/2/6 525/2/6
f 524/2/6 523/2/6 525/2/6
f 526/3/6 527/3/6 530/3/6
f 530/3/6 527/3/6 531/3/6
f 527/1/6 528/1/6 532/1/6
f 531/3/6 527/3/6 532/3/6
f 528/3/6 529/3/6 533/3/6
f 532/1/6 528/1/6 533/1/6
f 531/3/6 532/3/6 534/3/6
f 532/3/6 533/3/6 534/3/6
f 533/3/6 529/3/6 535/3/6
f 534/3/6 533/3/6 535/3/6
f 536/1/6 537/1/6 541/1/6
f 541/1/6 537/1/6 542/1/6
f 539/1/6 540/1/6 543/1/6
f 538/3/6 539/3/6 543/3/6
f 543/1/6 540/1/6 544/1/6
f 545/2/6 546/2/6 548/2/6
f 548/2/6 546/2/6 549/2/6
f 543/3/6 544/3/6 550/3/6
f 547/2/6 548/2/6 551/2/6
f 551/2/6 548/2/6 552/2/6
f 538/3/6 543/3/6 553/3/6
f 543/3/6 550/3/6 553/3/6
f 550/3/6 551/3/6 553/3/6
f 553/3/6 551/3/6 554/3/6
f 554/3/6 551/3/6 555/3/6
f 555/3/6 551/3/6 556/3/6
f 557/2/6 558/2/6 559/2/6
f 559/2/6 558/2/6 560/2/6
f 561/1/6 562/1/6 563/1/6
f 563/1/6 562/1/6 564/1/6
f 565/3/6 566/3/6 567/3/6
f 565/3/6 567/3/6 569/3/6
f 567/3/6 568/3/6 569/3/6
f 569/3/6 568/3/6 570/3/6
f 565/3/6 569/3/6 571/3/6
f 571/3/6 569/3/6 572/3/6
f 565/3/6 571/3/6 573/3/6
f 573/3/6 571/3/6 574/3/6
