# MagicaVoxel @ Ephtracy

# group
o 

# material
mtllib chicken-2.mtl
usemtl palette

# normals
vn -1 0 0
vn 1 0 0
vn 0 0 1
vn 0 0 -1
vn 0 -1 0
vn 0 1 0

# texcoords
vt 0.970703 0.5
vt 0.974609 0.5
vt 0.978516 0.5

# verts
v -24.1 2.2 -13
v -24.1 2.2 -14.7
v -24.1 2.3 -13
v -24.1 2.3 -14.7
v -24.1 2.5 -13
v -24.1 2.5 -13.5
v -24.1 2.5 -13.9
v -24.1 2.5 -14.7
v -24.1 2.8 -13.5
v -24.1 2.8 -13.7
v -24.1 2.8 -13.9
v -24.1 2.9 -13.7
v -24.1 2.9 -13.9
v -24 1.9 -14.1
v -24 1.9 -14.6
v -24 2 -14.1
v -24 2 -14.6
v -24 2 -14.7
v -24 2.1 -14.6
v -24 2.1 -14.7
v -24 2.1 -14.8
v -24 2.2 -14.1
v -24 2.2 -14.7
v -24 2.3 -14.7
v -24 2.5 -13
v -24 2.5 -13.5
v -24 2.5 -14.7
v -24 2.5 -14.8
v -24 2.8 -13
v -24 2.8 -13.5
v -24 3 -14.4
v -24 3 -14.8
v -24 3.1 -14.4
v -24 3.1 -14.8
v -24 3.2 -14.4
v -24 3.2 -14.8
v -23.9 2.5 -13.9
v -23.9 2.5 -14.7
v -23.9 2.8 -13.9
v -23.9 2.8 -14.4
v -23.9 2.9 -13.9
v -23.9 2.9 -14.4
v -23.9 2.9 -14.7
v -23.9 2.9 -14.9
v -23.9 3 -14.4
v -23.9 3 -14.8
v -23.9 3.1 -14.8
v -23.9 3.1 -14.9
v -23.9 3.2 -14.8
v -23.9 3.2 -14.9
v -23.8 1.9 -14.6
v -23.8 1.9 -14.7
v -23.8 2 -14.6
v -23.8 2 -14.7
v -23.7 2 -13.3
v -23.7 2 -14.1
v -23.7 2.1 -13.3
v -23.7 2.1 -14
v -23.7 2.2 -13.3
v -23.7 2.2 -14
v -23.7 2.2 -14.1
v -23.7 2.5 -14.7
v -23.7 2.5 -14.8
v -23.7 2.6 -14.7
v -23.7 2.6 -14.8
v -23.7 2.6 -14.9
v -23.7 2.8 -13
v -23.7 2.8 -13.7
v -23.7 2.9 -13
v -23.7 2.9 -13.7
v -23.7 2.9 -14.7
v -23.7 2.9 -14.9
v -23.6 2.2 -12.8
v -23.6 2.2 -13
v -23.6 2.3 -12.5
v -23.6 2.3 -12.8
v -23.6 2.3 -13
v -23.6 2.4 -12.5
v -23.6 2.4 -12.8
v -23.6 2.6 -12.5
v -23.6 2.6 -13
v -23.5 1.9 -14.7
v -23.5 1.9 -14.8
v -23.5 2.1 -14.7
v -23.5 2.1 -14.8
v -23.3 2.1 -13.1
v -23.3 2.1 -13.3
v -23.3 2.2 -13.1
v -23.3 2.2 -13.3
v -23 2 -12.8
v -23 2 -13.2
v -23 2.1 -12.8
v -23 2.1 -13.1
v -23 2.1 -13.2
v -23 2.2 -12.8
v -23 2.2 -13.1
v -22.9 2 -12.5
v -22.9 2 -12.8
v -22.9 2.1 -12.5
v -22.9 2.1 -12.8
v -22.9 2.1 -14.8
v -22.9 2.1 -14.9
v -22.9 2.2 -14.8
v -22.9 2.2 -14.9
v -22.9 2.3 -12.5
v -22.9 2.3 -12.8
v -22.9 2.4 -14.8
v -22.9 2.4 -14.9
v -22.9 2.9 -13.8
v -22.9 2.9 -14.5
v -22.9 3 -13.8
v -22.9 3 -14.5
v -22.8 1.8 -14.3
v -22.8 1.8 -14.7
v -22.8 1.9 -14.3
v -22.8 1.9 -14.7
v -22.8 2.4 -14.8
v -22.8 2.4 -14.9
v -22.8 2.5 -14.8
v -22.8 2.5 -14.9
v -22.2 1.8 -14.3
v -22.2 1.8 -14.7
v -22.2 1.9 -14.3
v -22.2 1.9 -14.6
v -22.2 2.1 -14.3
v -22.2 2.1 -14.6
v -22.2 2.1 -14.7
v -23.1 2.6 -14.8
v -23.1 2.6 -14.9
v -23.1 2.7 -14.8
v -23.1 2.7 -14.9
v -23.1 3.1 -14.8
v -23.1 3.1 -14.9
v -23.1 3.2 -14.8
v -23.1 3.2 -14.9
v -23 2.7 -14.8
v -23 2.7 -14.9
v -23 2.8 -14.7
v -23 2.8 -14.8
v -23 2.9 -14.4
v -23 2.9 -14.7
v -23 3.1 -14.4
v -23 3.1 -14.8
v -23 3.1 -14.9
v -23 3.2 -14.4
v -23 3.2 -14.8
v -22.6 1.8 -14.3
v -22.6 1.8 -14.7
v -22.6 1.9 -14.1
v -22.6 1.9 -14.3
v -22.6 1.9 -14.5
v -22.6 1.9 -14.7
v -22.6 1.9 -14.8
v -22.6 2 -12.5
v -22.6 2 -13.2
v -22.6 2 -13.3
v -22.6 2 -14.1
v -22.6 2.1 -12.5
v -22.6 2.1 -13.2
v -22.6 2.1 -13.3
v -22.6 2.1 -14.5
v -22.6 2.1 -14.7
v -22.6 2.1 -14.8
v -22.5 2.2 -12.5
v -22.5 2.2 -12.6
v -22.5 2.6 -12.5
v -22.5 2.6 -12.6
v -22.4 2.5 -14.7
v -22.4 2.5 -14.8
v -22.4 2.8 -14.7
v -22.4 2.8 -14.8
v -22.3 2.9 -13.8
v -22.3 2.9 -14.5
v -22.3 3 -13.8
v -22.3 3 -14.5
v -22.2 2.1 -12.5
v -22.2 2.1 -13.1
v -22.2 2.2 -12.5
v -22.2 2.2 -12.6
v -22.2 2.2 -13.1
v -22 2.1 -13.1
v -22 2.1 -14.3
v -22 2.2 -12.6
v -22 2.2 -12.8
v -22 2.2 -13.1
v -22 2.2 -14.3
v -22 2.2 -14.6
v -22 2.2 -14.7
v -22 2.3 -12.6
v -22 2.3 -12.8
v -22 2.3 -14.3
v -22 2.3 -14.6
v -22 2.4 -14.2
v -22 2.4 -14.3
v -22 2.5 -14
v -22 2.5 -14.2
v -22 2.5 -14.7
v -22 2.6 -12.6
v -22 2.6 -12.8
v -22 2.6 -13
v -22 2.6 -14
v -22 2.8 -13
v -22 2.8 -14.7
v -22 2.9 -13
v -22 2.9 -14.7
v -21.9 2.1 -14.7
v -21.9 2.1 -14.9
v -21.9 2.2 -14.7
v -21.9 2.2 -14.9
v -21.9 2.3 -14.2
v -21.9 2.3 -14.3
v -21.9 2.4 -14.2
v -21.9 2.4 -14.3
v -21.9 2.5 -14.7
v -21.9 2.5 -14.9
v -21.8 2.2 -12.8
v -21.8 2.2 -13.3
v -21.8 2.3 -12.8
v -21.8 2.3 -13.3
v -21.8 2.3 -13.4
v -21.8 2.5 -13.4
v -21.8 2.5 -14
v -21.8 2.6 -12.8
v -21.8 2.6 -14
v -21.6 2.3 -13.4
v -21.6 2.3 -14.2
v -21.6 2.5 -13.4
v -21.6 2.5 -14.2
v -21.5 1.8 -14.3
v -21.5 1.8 -14.7
v -21.5 1.9 -14.3
v -21.5 1.9 -14.6
v -21.5 2.2 -14.3
v -21.5 2.2 -14.6
v -21.5 2.2 -14.7
v -21.2 2.2 -13.3
v -21.2 2.2 -14.6
v -21.2 2.3 -13.3
v -21.2 2.3 -14.6
v -23.6 2.3 -12.5
v -23.6 2.4 -12.5
v -23.6 2.6 -12.5
v -22.9 2 -12.5
v -22.9 2.1 -12.5
v -22.9 2.3 -12.5
v -22.9 2.4 -12.5
v -22.6 2 -12.5
v -22.6 2.1 -12.5
v -22.6 2.2 -12.5
v -22.5 2.2 -12.5
v -22.5 2.6 -12.5
v -22.2 2.1 -12.5
v -22.2 2.2 -12.5
v -22.5 2.2 -12.6
v -22.5 2.6 -12.6
v -22.2 2.2 -12.6
v -22.2 2.3 -12.6
v -22 2.2 -12.6
v -22 2.3 -12.6
v -22 2.6 -12.6
v -23.6 2.2 -12.8
v -23.6 2.3 -12.8
v -23 2 -12.8
v -23 2.1 -12.8
v -23 2.2 -12.8
v -23 2.3 -12.8
v -22.9 2 -12.8
v -22.9 2.1 -12.8
v -22.9 2.3 -12.8
v -22 2.2 -12.8
v -22 2.3 -12.8
v -22 2.6 -12.8
v -21.8 2.2 -12.8
v -21.8 2.3 -12.8
v -21.8 2.6 -12.8
v -24.1 2.2 -13
v -24.1 2.3 -13
v -24.1 2.5 -13
v -24 2.5 -13
v -24 2.8 -13
v -23.7 2.8 -13
v -23.7 2.9 -13
v -23.6 2.2 -13
v -23.6 2.3 -13
v -23.6 2.6 -13
v -22 2.6 -13
v -22 2.8 -13
v -22 2.9 -13
v -23.3 2.1 -13.1
v -23.3 2.2 -13.1
v -23 2.1 -13.1
v -23 2.2 -13.1
v -22.2 2.1 -13.1
v -22.2 2.2 -13.1
v -22 2.1 -13.1
v -22 2.2 -13.1
v -23.7 2 -13.3
v -23.7 2.1 -13.3
v -23.7 2.2 -13.3
v -23.3 2.1 -13.3
v -23.3 2.2 -13.3
v -22.6 2 -13.3
v -22.6 2.1 -13.3
v -21.8 2.2 -13.3
v -21.8 2.3 -13.3
v -21.2 2.2 -13.3
v -21.2 2.3 -13.3
v -21.8 2.3 -13.4
v -21.8 2.5 -13.4
v -21.6 2.3 -13.4
v -21.6 2.5 -13.4
v -24.1 2.5 -13.5
v -24.1 2.8 -13.5
v -24 2.5 -13.5
v -24 2.8 -13.5
v -24.1 2.8 -13.7
v -24.1 2.9 -13.7
v -23.7 2.8 -13.7
v -23.7 2.9 -13.7
v -22.9 2.9 -13.8
v -22.9 3 -13.8
v -22.3 2.9 -13.8
v -22.3 3 -13.8
v -24 1.9 -14.1
v -24 2 -14.1
v -24 2.2 -14.1
v -23.8 2 -14.1
v -23.8 2.2 -14.1
v -23.7 2 -14.1
v -23.7 2.2 -14.1
v -22.6 1.9 -14.1
v -22.6 2 -14.1
v -22.8 1.8 -14.3
v -22.8 1.9 -14.3
v -22.6 1.8 -14.3
v -22.6 1.9 -14.3
v -22.2 1.8 -14.3
v -22.2 1.9 -14.3
v -22.2 2.1 -14.3
v -22 2.1 -14.3
v -22 2.2 -14.3
v -21.5 1.8 -14.3
v -21.5 1.9 -14.3
v -21.5 2.2 -14.3
v -24 3 -14.4
v -24 3.1 -14.4
v -24 3.2 -14.4
v -23.9 2.9 -14.4
v -23.9 3 -14.4
v -23 2.9 -14.4
v -23 3.1 -14.4
v -23 3.2 -14.4
v -22 2.2 -14.7
v -22 2.5 -14.7
v -21.9 2.2 -14.7
v -21.9 2.5 -14.7
v -23 2 -13.2
v -23 2.1 -13.2
v -22.6 2 -13.2
v -22.6 2.1 -13.2
v -24.1 2.5 -13.9
v -24.1 2.8 -13.9
v -24.1 2.9 -13.9
v -23.9 2.5 -13.9
v -23.9 2.8 -13.9
v -23.9 2.9 -13.9
v -22 2.5 -14
v -22 2.6 -14
v -21.8 2.5 -14
v -21.8 2.6 -14
v -22 2.4 -14.2
v -22 2.5 -14.2
v -21.9 2.3 -14.2
v -21.9 2.4 -14.2
v -21.6 2.3 -14.2
v -21.6 2.5 -14.2
v -22 2.3 -14.3
v -22 2.4 -14.3
v -21.9 2.3 -14.3
v -21.9 2.4 -14.3
v -22.9 2.9 -14.5
v -22.9 3 -14.5
v -22.3 2.9 -14.5
v -22.3 3 -14.5
v -24 1.9 -14.6
v -24 2 -14.6
v -23.8 1.9 -14.6
v -23.8 2 -14.6
v -22 2.2 -14.6
v -22 2.3 -14.6
v -21.5 2.2 -14.6
v -21.2 2.2 -14.6
v -21.2 2.3 -14.6
v -24.1 2.2 -14.7
v -24.1 2.3 -14.7
v -24.1 2.5 -14.7
v -24 2 -14.7
v -24 2.1 -14.7
v -24 2.2 -14.7
v -24 2.3 -14.7
v -24 2.5 -14.7
v -23.9 2.5 -14.7
v -23.9 2.9 -14.7
v -23.8 1.9 -14.7
v -23.8 2 -14.7
v -23.7 2.5 -14.7
v -23.7 2.6 -14.7
v -23.7 2.9 -14.7
v -23.5 1.9 -14.7
v -23.5 2.1 -14.7
v -23 2.8 -14.7
v -23 2.9 -14.7
v -22.8 1.8 -14.7
v -22.8 1.9 -14.7
v -22.6 1.8 -14.7
v -22.6 1.9 -14.7
v -22.4 2.5 -14.7
v -22.4 2.8 -14.7
v -22.2 1.8 -14.7
v -22.2 2.1 -14.7
v -22 2.5 -14.7
v -22 2.8 -14.7
v -22 2.9 -14.7
v -21.9 2.1 -14.7
v -21.9 2.2 -14.7
v -21.5 1.8 -14.7
v -21.5 2.2 -14.7
v -24 2.1 -14.8
v -24 2.5 -14.8
v -24 3 -14.8
v -24 3.1 -14.8
v -24 3.2 -14.8
v -23.9 3 -14.8
v -23.9 3.1 -14.8
v -23.9 3.2 -14.8
v -23.7 2.5 -14.8
v -23.7 2.6 -14.8
v -23.5 1.9 -14.8
v -23.5 2.1 -14.8
v -23.1 2.6 -14.8
v -23.1 2.7 -14.8
v -23.1 3.1 -14.8
v -23.1 3.2 -14.8
v -23 2.7 -14.8
v -23 2.8 -14.8
v -23 3.1 -14.8
v -23 3.2 -14.8
v -22.9 2.1 -14.8
v -22.9 2.2 -14.8
v -22.9 2.4 -14.8
v -22.8 2.4 -14.8
v -22.8 2.5 -14.8
v -22.6 1.9 -14.8
v -22.6 2.1 -14.8
v -22.4 2.5 -14.8
v -22.4 2.8 -14.8
v -23.9 2.9 -14.9
v -23.9 3.1 -14.9
v -23.9 3.2 -14.9
v -23.7 2.6 -14.9
v -23.7 2.9 -14.9
v -23.1 2.6 -14.9
v -23.1 2.7 -14.9
v -23.1 3.1 -14.9
v -23.1 3.2 -14.9
v -23 2.7 -14.9
v -23 3.1 -14.9
v -22.9 2.1 -14.9
v -22.9 2.2 -14.9
v -22.9 2.4 -14.9
v -22.8 2.4 -14.9
v -22.8 2.5 -14.9
v -21.9 2.1 -14.9
v -21.9 2.2 -14.9
v -21.9 2.5 -14.9
v -22.8 1.8 -14.3
v -22.6 1.8 -14.3
v -22.2 1.8 -14.3
v -21.5 1.8 -14.3
v -22.8 1.8 -14.7
v -22.6 1.8 -14.7
v -22.2 1.8 -14.7
v -21.5 1.8 -14.7
v -24 1.9 -14.1
v -22.6 1.9 -14.1
v -22.8 1.9 -14.3
v -22.6 1.9 -14.3
v -24 1.9 -14.6
v -23.8 1.9 -14.6
v -23.8 1.9 -14.7
v -23.5 1.9 -14.7
v -22.8 1.9 -14.7
v -22.6 1.9 -14.7
v -23.5 1.9 -14.8
v -22.6 1.9 -14.8
v -22.9 2 -12.5
v -22.6 2 -12.5
v -23 2 -12.8
v -22.9 2 -12.8
v -23 2 -13.2
v -22.6 2 -13.2
v -23.7 2 -13.3
v -22.6 2 -13.3
v -23.7 2 -14.1
v -22.6 2 -14.1
v -24 2 -14.6
v -23.8 2 -14.6
v -24 2 -14.7
v -23.8 2 -14.7
v -22.6 2.1 -12.5
v -22.2 2.1 -12.5
v -23.3 2.1 -13.1
v -23 2.1 -13.1
v -22.2 2.1 -13.1
v -22 2.1 -13.1
v -23 2.1 -13.2
v -22.6 2.1 -13.2
v -23.3 2.1 -13.3
v -22.6 2.1 -13.3
v -22.2 2.1 -14.3
v -22 2.1 -14.3
v -22.6 2.1 -14.5
v -22.2 2.1 -14.6
v -24 2.1 -14.7
v -23.5 2.1 -14.7
v -22.6 2.1 -14.7
v -22.2 2.1 -14.7
v -21.9 2.1 -14.7
v -24 2.1 -14.8
v -23.5 2.1 -14.8
v -22.9 2.1 -14.8
v -22.6 2.1 -14.8
v -22.9 2.1 -14.9
v -21.9 2.1 -14.9
v -22.2 2.2 -12.6
v -22 2.2 -12.6
v -23.6 2.2 -12.8
v -23 2.2 -12.8
v -22 2.2 -12.8
v -21.8 2.2 -12.8
v -24.1 2.2 -13
v -23.6 2.2 -13
v -23.3 2.2 -13.1
v -23 2.2 -13.1
v -22.2 2.2 -13.1
v -22 2.2 -13.1
v -23.7 2.2 -13.3
v -23.3 2.2 -13.3
v -21.8 2.2 -13.3
v -21.2 2.2 -13.3
v -23.7 2.2 -14
v -24 2.2 -14.1
v -23.8 2.2 -14.1
v -23.7 2.2 -14.1
v -22 2.2 -14.3
v -21.5 2.2 -14.3
v -21.5 2.2 -14.6
v -21.2 2.2 -14.6
v -24.1 2.2 -14.7
v -24 2.2 -14.7
v -23.6 2.3 -12.5
v -22.9 2.3 -12.5
v -23.6 2.3 -12.8
v -23 2.3 -12.8
v -22.9 2.3 -12.8
v -23.7 2.6 -14.8
v -23.1 2.6 -14.8
v -23.7 2.6 -14.9
v -23.1 2.6 -14.9
v -23.1 2.7 -14.8
v -23 2.7 -14.8
v -23.1 2.7 -14.9
v -23 2.7 -14.9
v -23.9 2.9 -14.7
v -23.7 2.9 -14.7
v -23.9 2.9 -14.9
v -23.7 2.9 -14.9
v -24 3 -14.4
v -23.9 3 -14.4
v -24 3 -14.8
v -23.9 3 -14.8
v -22.5 2.2 -12.5
v -22.2 2.2 -12.5
v -22.5 2.2 -12.6
v -22.2 2.2 -12.6
v -22 2.2 -14.6
v -21.5 2.2 -14.6
v -22 2.2 -14.7
v -21.9 2.2 -14.7
v -21.5 2.2 -14.7
v -21.8 2.3 -13.3
v -21.2 2.3 -13.3
v -21.8 2.3 -13.4
v -21.6 2.3 -13.4
v -21.9 2.3 -14.2
v -21.6 2.3 -14.2
v -22 2.3 -14.3
v -21.9 2.3 -14.3
v -22 2.3 -14.6
v -21.2 2.3 -14.6
v -22 2.4 -14.2
v -21.9 2.4 -14.2
v -22 2.4 -14.3
v -21.9 2.4 -14.3
v -22.9 2.4 -14.8
v -22.8 2.4 -14.8
v -22.9 2.4 -14.9
v -22.8 2.4 -14.9
v -24.1 2.5 -13
v -24 2.5 -13
v -21.8 2.5 -13.4
v -21.6 2.5 -13.4
v -24.1 2.5 -13.5
v -24 2.5 -13.5
v -24.1 2.5 -13.9
v -23.9 2.5 -13.9
v -22 2.5 -14
v -21.8 2.5 -14
v -22 2.5 -14.2
v -21.6 2.5 -14.2
v -24.1 2.5 -14.7
v -24 2.5 -14.7
v -23.9 2.5 -14.7
v -23.7 2.5 -14.7
v -22.4 2.5 -14.7
v -22 2.5 -14.7
v -21.9 2.5 -14.7
v -24 2.5 -14.8
v -23.7 2.5 -14.8
v -22.8 2.5 -14.8
v -22.4 2.5 -14.8
v -22.8 2.5 -14.9
v -21.9 2.5 -14.9
v -23.6 2.6 -12.5
v -22.5 2.6 -12.5
v -22.5 2.6 -12.6
v -22 2.6 -12.6
v -22 2.6 -12.8
v -21.8 2.6 -12.8
v -23.6 2.6 -13
v -22 2.6 -13
v -22 2.6 -14
v -21.8 2.6 -14
v -24 2.8 -13
v -23.7 2.8 -13
v -24.1 2.8 -13.5
v -24 2.8 -13.5
v -24.1 2.8 -13.7
v -23.7 2.8 -13.7
v -23 2.8 -14.7
v -22.4 2.8 -14.7
v -23 2.8 -14.8
v -22.4 2.8 -14.8
v -23.7 2.9 -13
v -22 2.9 -13
v -24.1 2.9 -13.7
v -23.7 2.9 -13.7
v -22.9 2.9 -13.8
v -22.3 2.9 -13.8
v -24.1 2.9 -13.9
v -23.9 2.9 -13.9
v -23.9 2.9 -14.4
v -23 2.9 -14.4
v -22.9 2.9 -14.5
v -22.3 2.9 -14.5
v -23 2.9 -14.7
v -22 2.9 -14.7
v -22.9 3 -13.8
v -22.3 3 -13.8
v -22.9 3 -14.5
v -22.3 3 -14.5
v -23.1 3.1 -14.8
v -23 3.1 -14.8
v -23.1 3.1 -14.9
v -23 3.1 -14.9
v -24 3.2 -14.4
v -23 3.2 -14.4
v -24 3.2 -14.8
v -23.9 3.2 -14.8
v -23.1 3.2 -14.8
v -23 3.2 -14.8
v -23.9 3.2 -14.9
v -23.1 3.2 -14.9

# faces
f 3/3/1 2/3/1 1/3/1
f 4/3/1 2/3/1 3/3/1
f 5/2/1 4/2/1 3/2/1
f 6/2/1 4/2/1 5/2/1
f 7/2/1 4/2/1 6/2/1
f 8/2/1 4/2/1 7/2/1
f 9/2/1 7/2/1 6/2/1
f 10/2/1 7/2/1 9/2/1
f 11/2/1 7/2/1 10/2/1
f 12/1/1 11/1/1 10/1/1
f 13/1/1 11/1/1 12/1/1
f 16/3/1 15/3/1 14/3/1
f 17/3/1 15/3/1 16/3/1
f 19/2/1 17/2/1 16/2/1
f 19/3/1 18/3/1 17/3/1
f 20/3/1 18/3/1 19/3/1
f 22/2/1 19/2/1 16/2/1
f 22/2/1 20/2/1 19/2/1
f 23/3/1 21/3/1 20/3/1
f 23/2/1 20/2/1 22/2/1
f 24/3/1 21/3/1 23/3/1
f 27/3/1 21/3/1 24/3/1
f 28/3/1 21/3/1 27/3/1
f 29/2/1 26/2/1 25/2/1
f 30/2/1 26/2/1 29/2/1
f 33/2/1 32/2/1 31/2/1
f 34/2/1 32/2/1 33/2/1
f 35/1/1 34/1/1 33/1/1
f 36/1/1 34/1/1 35/1/1
f 39/2/1 38/2/1 37/2/1
f 40/2/1 38/2/1 39/2/1
f 41/1/1 40/1/1 39/1/1
f 42/2/1 38/2/1 40/2/1
f 42/1/1 40/1/1 41/1/1
f 43/2/1 38/2/1 42/2/1
f 45/2/1 44/2/1 43/2/1
f 45/2/1 43/2/1 42/2/1
f 46/2/1 44/2/1 45/2/1
f 47/2/1 44/2/1 46/2/1
f 48/2/1 44/2/1 47/2/1
f 49/1/1 48/1/1 47/1/1
f 50/1/1 48/1/1 49/1/1
f 53/3/1 52/3/1 51/3/1
f 54/3/1 52/3/1 53/3/1
f 57/3/1 56/3/1 55/3/1
f 58/3/1 56/3/1 57/3/1
f 59/2/1 58/2/1 57/2/1
f 60/3/1 56/3/1 58/3/1
f 60/2/1 58/2/1 59/2/1
f 61/3/1 56/3/1 60/3/1
f 64/3/1 63/3/1 62/3/1
f 65/3/1 63/3/1 64/3/1
f 69/1/1 68/1/1 67/1/1
f 70/1/1 68/1/1 69/1/1
f 71/2/1 65/2/1 64/2/1
f 71/2/1 66/2/1 65/2/1
f 72/2/1 66/2/1 71/2/1
f 76/3/1 74/3/1 73/3/1
f 77/3/1 74/3/1 76/3/1
f 78/3/1 76/3/1 75/3/1
f 79/2/1 77/2/1 76/2/1
f 79/3/1 76/3/1 78/3/1
f 80/2/1 79/2/1 78/2/1
f 81/2/1 77/2/1 79/2/1
f 81/2/1 79/2/1 80/2/1
f 84/3/1 83/3/1 82/3/1
f 85/3/1 83/3/1 84/3/1
f 88/3/1 87/3/1 86/3/1
f 89/3/1 87/3/1 88/3/1
f 92/3/1 91/3/1 90/3/1
f 93/3/1 91/3/1 92/3/1
f 94/3/1 91/3/1 93/3/1
f 95/2/1 93/2/1 92/2/1
f 96/2/1 93/2/1 95/2/1
f 99/3/1 98/3/1 97/3/1
f 100/3/1 98/3/1 99/3/1
f 103/3/1 102/3/1 101/3/1
f 104/3/1 102/3/1 103/3/1
f 105/2/1 100/2/1 99/2/1
f 106/2/1 100/2/1 105/2/1
f 107/2/1 104/2/1 103/2/1
f 108/2/1 104/2/1 107/2/1
f 111/1/1 110/1/1 109/1/1
f 112/1/1 110/1/1 111/1/1
f 115/3/1 114/3/1 113/3/1
f 116/3/1 114/3/1 115/3/1
f 119/2/1 118/2/1 117/2/1
f 120/2/1 118/2/1 119/2/1
f 123/3/1 122/3/1 121/3/1
f 124/3/1 122/3/1 123/3/1
f 125/2/1 124/2/1 123/2/1
f 126/3/1 122/3/1 124/3/1
f 126/2/1 124/2/1 125/2/1
f 127/3/1 122/3/1 126/3/1
f 128/2/2 129/2/2 130/2/2
f 130/2/2 129/2/2 131/2/2
f 132/1/2 133/1/2 134/1/2
f 134/1/2 133/1/2 135/1/2
f 136/2/2 137/2/2 139/2/2
f 138/2/2 139/2/2 141/2/2
f 140/2/2 141/2/2 142/2/2
f 139/2/2 137/2/2 143/2/2
f 142/2/2 141/2/2 143/2/2
f 141/2/2 139/2/2 143/2/2
f 143/2/2 137/2/2 144/2/2
f 142/1/2 143/1/2 145/1/2
f 145/1/2 143/1/2 146/1/2
f 147/3/2 148/3/2 150/3/2
f 150/3/2 148/3/2 151/3/2
f 151/3/2 148/3/2 152/3/2
f 149/3/2 150/3/2 157/3/2
f 150/3/2 151/3/2 157/3/2
f 154/3/2 155/3/2 158/3/2
f 158/3/2 155/3/2 159/3/2
f 156/3/2 157/3/2 160/3/2
f 151/2/2 152/2/2 161/2/2
f 160/3/2 157/3/2 161/3/2
f 157/3/2 151/3/2 161/3/2
f 152/3/2 153/3/2 162/3/2
f 161/2/2 152/2/2 162/2/2
f 162/3/2 153/3/2 163/3/2
f 164/2/2 165/2/2 166/2/2
f 166/2/2 165/2/2 167/2/2
f 168/3/2 169/3/2 170/3/2
f 170/3/2 169/3/2 171/3/2
f 172/1/2 173/1/2 174/1/2
f 174/1/2 173/1/2 175/1/2
f 176/3/2 177/3/2 178/3/2
f 178/3/2 177/3/2 179/3/2
f 179/3/2 177/3/2 180/3/2
f 181/3/2 182/3/2 185/3/2
f 185/3/2 182/3/2 186/3/2
f 183/3/2 184/3/2 189/3/2
f 189/3/2 184/3/2 190/3/2
f 187/2/2 188/2/2 192/2/2
f 191/2/2 192/2/2 194/2/2
f 193/2/2 194/2/2 196/2/2
f 192/2/2 188/2/2 197/2/2
f 194/2/2 192/2/2 197/2/2
f 196/2/2 194/2/2 197/2/2
f 189/2/2 190/2/2 198/2/2
f 198/2/2 190/2/2 199/2/2
f 195/2/2 196/2/2 201/2/2
f 196/2/2 197/2/2 201/2/2
f 200/2/2 201/2/2 202/2/2
f 201/2/2 197/2/2 203/2/2
f 202/2/2 201/2/2 203/2/2
f 202/1/2 203/1/2 204/1/2
f 204/1/2 203/1/2 205/1/2
f 206/3/2 207/3/2 208/3/2
f 208/3/2 207/3/2 209/3/2
f 210/2/2 211/2/2 212/2/2
f 212/2/2 211/2/2 213/2/2
f 208/2/2 209/2/2 214/2/2
f 214/2/2 209/2/2 215/2/2
f 216/3/2 217/3/2 218/3/2
f 218/3/2 217/3/2 219/3/2
f 218/2/2 219/2/2 221/2/2
f 219/2/2 220/2/2 221/2/2
f 218/2/2 221/2/2 223/2/2
f 221/2/2 222/2/2 223/2/2
f 223/2/2 222/2/2 224/2/2
f 225/2/2 226/2/2 227/2/2
f 227/2/2 226/2/2 228/2/2
f 229/3/2 230/3/2 231/3/2
f 231/3/2 230/3/2 232/3/2
f 231/2/2 232/2/2 233/2/2
f 232/3/2 230/3/2 234/3/2
f 233/2/2 232/2/2 234/2/2
f 234/3/2 230/3/2 235/3/2
f 236/3/2 237/3/2 238/3/2
f 238/3/2 237/3/2 239/3/2
f 245/3/3 241/3/3 240/3/3
f 246/2/3 242/2/3 241/2/3
f 246/3/3 241/3/3 245/3/3
f 247/3/3 244/3/3 243/3/3
f 248/2/3 245/2/3 244/2/3
f 248/3/3 244/3/3 247/3/3
f 248/2/3 246/2/3 245/2/3
f 249/2/3 246/2/3 248/2/3
f 250/2/3 246/2/3 249/2/3
f 250/3/3 249/3/3 248/3/3
f 251/2/3 242/2/3 246/2/3
f 251/2/3 246/2/3 250/2/3
f 252/3/3 250/3/3 248/3/3
f 253/3/3 250/3/3 252/3/3
f 256/2/3 255/2/3 254/2/3
f 257/2/3 255/2/3 256/2/3
f 258/3/3 257/3/3 256/3/3
f 259/2/3 255/2/3 257/2/3
f 259/3/3 257/3/3 258/3/3
f 260/2/3 255/2/3 259/2/3
f 265/3/3 262/3/3 261/3/3
f 266/3/3 262/3/3 265/3/3
f 267/3/3 264/3/3 263/3/3
f 268/2/3 265/2/3 264/2/3
f 268/3/3 264/3/3 267/3/3
f 268/2/3 266/2/3 265/2/3
f 269/2/3 266/2/3 268/2/3
f 273/3/3 271/3/3 270/3/3
f 274/2/3 272/2/3 271/2/3
f 274/3/3 271/3/3 273/3/3
f 275/2/3 272/2/3 274/2/3
f 279/2/3 278/2/3 277/2/3
f 281/2/3 280/2/3 279/2/3
f 283/3/3 277/3/3 276/3/3
f 284/2/3 279/2/3 277/2/3
f 284/3/3 277/3/3 283/3/3
f 284/2/3 281/2/3 279/2/3
f 285/2/3 281/2/3 284/2/3
f 286/2/3 281/2/3 285/2/3
f 287/1/3 282/1/3 281/1/3
f 287/2/3 281/2/3 286/2/3
f 288/1/3 282/1/3 287/1/3
f 291/3/3 290/3/3 289/3/3
f 292/3/3 290/3/3 291/3/3
f 295/3/3 294/3/3 293/3/3
f 296/3/3 294/3/3 295/3/3
f 300/3/3 298/3/3 297/3/3
f 300/2/3 299/2/3 298/2/3
f 301/2/3 299/2/3 300/2/3
f 302/3/3 300/3/3 297/3/3
f 303/3/3 300/3/3 302/3/3
f 306/3/3 305/3/3 304/3/3
f 307/3/3 305/3/3 306/3/3
f 310/2/3 309/2/3 308/2/3
f 311/2/3 309/2/3 310/2/3
f 314/2/3 313/2/3 312/2/3
f 315/2/3 313/2/3 314/2/3
f 318/1/3 317/1/3 316/1/3
f 319/1/3 317/1/3 318/1/3
f 322/1/3 321/1/3 320/1/3
f 323/1/3 321/1/3 322/1/3
f 327/3/3 325/3/3 324/3/3
f 327/2/3 326/2/3 325/2/3
f 328/2/3 326/2/3 327/2/3
f 329/3/3 327/3/3 324/3/3
f 329/3/3 328/3/3 327/3/3
f 330/3/3 328/3/3 329/3/3
f 331/3/3 329/3/3 324/3/3
f 332/3/3 329/3/3 331/3/3
f 335/3/3 334/3/3 333/3/3
f 336/3/3 334/3/3 335/3/3
f 340/2/3 339/2/3 338/2/3
f 342/3/3 338/3/3 337/3/3
f 343/2/3 341/2/3 340/2/3
f 343/3/3 338/3/3 342/3/3
f 343/2/3 340/2/3 338/2/3
f 344/2/3 341/2/3 343/2/3
f 349/2/3 346/2/3 345/2/3
f 350/2/3 349/2/3 348/2/3
f 351/1/3 347/1/3 346/1/3
f 351/2/3 349/2/3 350/2/3
f 351/2/3 346/2/3 349/2/3
f 352/1/3 347/1/3 351/1/3
f 355/2/3 354/2/3 353/2/3
f 356/2/3 354/2/3 355/2/3
f 357/3/4 358/3/4 359/3/4
f 359/3/4 358/3/4 360/3/4
f 361/2/4 362/2/4 364/2/4
f 362/1/4 363/1/4 365/1/4
f 364/2/4 362/2/4 365/2/4
f 365/1/4 363/1/4 366/1/4
f 367/2/4 368/2/4 369/2/4
f 369/2/4 368/2/4 370/2/4
f 371/2/4 372/2/4 374/2/4
f 373/2/4 374/2/4 375/2/4
f 374/2/4 372/2/4 376/2/4
f 375/2/4 374/2/4 376/2/4
f 377/2/4 378/2/4 379/2/4
f 379/2/4 378/2/4 380/2/4
f 381/1/4 382/1/4 383/1/4
f 383/1/4 382/1/4 384/1/4
f 385/3/4 386/3/4 387/3/4
f 387/3/4 386/3/4 388/3/4
f 389/3/4 390/3/4 391/3/4
f 391/3/4 390/3/4 392/3/4
f 392/3/4 390/3/4 393/3/4
f 394/3/4 395/3/4 399/3/4
f 395/2/4 396/2/4 400/2/4
f 399/3/4 395/3/4 400/3/4
f 400/2/4 396/2/4 401/2/4
f 397/3/4 398/3/4 405/3/4
f 402/2/4 403/2/4 406/2/4
f 406/2/4 403/2/4 407/2/4
f 407/2/4 403/2/4 408/2/4
f 404/3/4 405/3/4 409/3/4
f 405/3/4 398/3/4 410/3/4
f 409/3/4 405/3/4 410/3/4
f 413/3/4 414/3/4 415/3/4
f 415/3/4 414/3/4 416/3/4
f 411/1/4 412/1/4 418/1/4
f 417/2/4 418/2/4 421/2/4
f 418/1/4 412/1/4 422/1/4
f 421/2/4 418/2/4 422/2/4
f 422/1/4 412/1/4 423/1/4
f 419/3/4 420/3/4 424/3/4
f 419/3/4 424/3/4 426/3/4
f 424/3/4 425/3/4 426/3/4
f 426/3/4 425/3/4 427/3/4
f 430/2/4 431/2/4 433/2/4
f 431/1/4 432/1/4 434/1/4
f 433/2/4 431/2/4 434/2/4
f 434/1/4 432/1/4 435/1/4
f 428/3/4 429/3/4 436/3/4
f 428/3/4 436/3/4 439/3/4
f 436/3/4 437/3/4 439/3/4
f 439/3/4 437/3/4 440/3/4
f 438/3/4 439/3/4 440/3/4
f 440/3/4 441/3/4 444/3/4
f 442/1/4 443/1/4 446/1/4
f 446/1/4 443/1/4 447/1/4
f 438/3/4 440/3/4 448/3/4
f 444/3/4 445/3/4 448/3/4
f 440/3/4 444/3/4 448/3/4
f 448/3/4 445/3/4 449/3/4
f 449/3/4 445/3/4 450/3/4
f 450/3/4 445/3/4 451/3/4
f 451/3/4 445/3/4 452/3/4
f 438/3/4 448/3/4 453/3/4
f 453/3/4 448/3/4 454/3/4
f 452/3/4 445/3/4 455/3/4
f 455/3/4 445/3/4 456/3/4
f 457/2/4 458/2/4 461/2/4
f 460/2/4 461/2/4 462/2/4
f 462/2/4 461/2/4 463/2/4
f 458/1/4 459/1/4 464/1/4
f 463/2/4 461/2/4 464/2/4
f 461/2/4 458/2/4 464/2/4
f 464/1/4 459/1/4 465/1/4
f 463/2/4 464/2/4 466/2/4
f 466/2/4 464/2/4 467/2/4
f 469/2/4 470/2/4 471/2/4
f 468/3/4 469/3/4 473/3/4
f 471/2/4 472/2/4 474/2/4
f 473/3/4 469/3/4 474/3/4
f 469/2/4 471/2/4 474/2/4
f 474/2/4 472/2/4 475/2/4
f 480/3/5 477/3/5 476/3/5
f 481/3/5 477/3/5 480/3/5
f 482/3/5 479/3/5 478/3/5
f 483/3/5 479/3/5 482/3/5
f 486/3/5 485/3/5 484/3/5
f 487/3/5 485/3/5 486/3/5
f 488/3/5 486/3/5 484/3/5
f 489/3/5 486/3/5 488/3/5
f 490/3/5 486/3/5 489/3/5
f 491/3/5 486/3/5 490/3/5
f 492/3/5 486/3/5 491/3/5
f 494/3/5 493/3/5 492/3/5
f 494/3/5 492/3/5 491/3/5
f 495/3/5 493/3/5 494/3/5
f 499/3/5 497/3/5 496/3/5
f 500/3/5 499/3/5 498/3/5
f 501/3/5 497/3/5 499/3/5
f 501/3/5 499/3/5 500/3/5
f 504/3/5 503/3/5 502/3/5
f 505/3/5 503/3/5 504/3/5
f 508/3/5 507/3/5 506/3/5
f 509/3/5 507/3/5 508/3/5
f 514/3/5 511/3/5 510/3/5
f 516/3/5 513/3/5 512/3/5
f 517/3/5 515/3/5 514/3/5
f 517/3/5 514/3/5 510/3/5
f 518/3/5 516/3/5 512/3/5
f 518/3/5 517/3/5 516/3/5
f 519/3/5 515/3/5 517/3/5
f 519/3/5 517/3/5 518/3/5
f 520/3/5 515/3/5 519/3/5
f 521/3/5 515/3/5 520/3/5
f 522/3/5 520/3/5 519/3/5
f 523/3/5 520/3/5 522/3/5
f 526/3/5 523/3/5 522/3/5
f 527/3/5 523/3/5 526/3/5
f 529/3/5 525/3/5 524/3/5
f 530/3/5 525/3/5 529/3/5
f 532/3/5 527/3/5 526/3/5
f 532/3/5 528/3/5 527/3/5
f 533/3/5 532/3/5 531/3/5
f 534/3/5 528/3/5 532/3/5
f 534/3/5 532/3/5 533/3/5
f 539/3/5 536/3/5 535/3/5
f 542/3/5 538/3/5 537/3/5
f 543/3/5 538/3/5 542/3/5
f 543/3/5 542/3/5 541/3/5
f 544/3/5 538/3/5 543/3/5
f 545/3/5 540/3/5 539/3/5
f 545/3/5 539/3/5 535/3/5
f 546/3/5 540/3/5 545/3/5
f 547/3/5 543/3/5 541/3/5
f 548/3/5 543/3/5 547/3/5
f 549/3/5 540/3/5 546/3/5
f 551/3/5 547/3/5 541/3/5
f 552/3/5 551/3/5 541/3/5
f 553/3/5 551/3/5 552/3/5
f 554/3/5 551/3/5 553/3/5
f 555/3/5 550/3/5 549/3/5
f 555/3/5 549/3/5 546/3/5
f 556/3/5 550/3/5 555/3/5
f 557/3/5 550/3/5 556/3/5
f 558/3/5 550/3/5 557/3/5
f 559/3/5 552/3/5 541/3/5
f 560/3/5 552/3/5 559/3/5
f 563/3/5 562/3/5 561/3/5
f 564/3/5 562/3/5 563/3/5
f 565/3/5 562/3/5 564/3/5
f 568/2/5 567/2/5 566/2/5
f 569/2/5 567/2/5 568/2/5
f 572/2/5 571/2/5 570/2/5
f 573/2/5 571/2/5 572/2/5
f 576/2/5 575/2/5 574/2/5
f 577/2/5 575/2/5 576/2/5
f 580/2/5 579/2/5 578/2/5
f 581/2/5 579/2/5 580/2/5
f 582/3/6 583/3/6 584/3/6
f 584/3/6 583/3/6 585/3/6
f 586/3/6 587/3/6 588/3/6
f 588/3/6 587/3/6 589/3/6
f 589/3/6 587/3/6 590/3/6
f 591/3/6 592/3/6 593/3/6
f 593/3/6 592/3/6 594/3/6
f 594/3/6 592/3/6 596/3/6
f 595/3/6 596/3/6 598/3/6
f 597/3/6 598/3/6 599/3/6
f 596/3/6 592/3/6 600/3/6
f 599/3/6 598/3/6 600/3/6
f 598/3/6 596/3/6 600/3/6
f 601/2/6 602/2/6 603/2/6
f 603/2/6 602/2/6 604/2/6
f 605/2/6 606/2/6 607/2/6
f 607/2/6 606/2/6 608/2/6
f 609/2/6 610/2/6 613/2/6
f 613/2/6 610/2/6 614/2/6
f 611/2/6 612/2/6 618/2/6
f 617/2/6 618/2/6 619/2/6
f 618/2/6 612/2/6 620/2/6
f 619/2/6 618/2/6 620/2/6
f 615/2/6 616/2/6 621/2/6
f 621/2/6 616/2/6 622/2/6
f 622/2/6 616/2/6 623/2/6
f 622/3/6 623/3/6 628/3/6
f 623/3/6 624/3/6 628/3/6
f 628/3/6 624/3/6 629/3/6
f 626/2/6 627/2/6 631/2/6
f 625/2/6 626/2/6 631/2/6
f 630/2/6 631/2/6 632/2/6
f 631/2/6 627/2/6 633/2/6
f 632/2/6 631/2/6 633/2/6
f 634/2/6 635/2/6 636/2/6
f 636/2/6 637/2/6 638/2/6
f 634/2/6 636/2/6 640/2/6
f 638/2/6 639/2/6 640/2/6
f 636/2/6 638/2/6 640/2/6
f 640/2/6 639/2/6 641/2/6
f 641/2/6 639/2/6 642/2/6
f 642/2/6 639/2/6 643/2/6
f 644/2/6 645/2/6 647/2/6
f 646/2/6 647/2/6 648/2/6
f 647/2/6 645/2/6 649/2/6
f 648/2/6 647/2/6 649/2/6
f 650/3/6 651/3/6 652/3/6
f 652/3/6 651/3/6 653/3/6
f 654/1/6 655/1/6 657/1/6
f 657/1/6 655/1/6 658/1/6
f 656/1/6 657/1/6 658/1/6
f 658/1/6 655/1/6 659/1/6
f 656/1/6 658/1/6 660/1/6
f 660/1/6 658/1/6 661/1/6
f 661/1/6 658/1/6 662/1/6
f 662/1/6 658/1/6 663/1/6
f 663/1/6 658/1/6 664/1/6
f 659/1/6 655/1/6 665/1/6
f 663/1/6 664/1/6 666/1/6
f 664/1/6 665/1/6 666/1/6
f 665/1/6 655/1/6 667/1/6
f 666/1/6 665/1/6 667/1/6
f 668/1/6 669/1/6 670/1/6
f 670/1/6 669/1/6 671/1/6
f 672/2/6 673/2/6 674/2/6
f 674/2/6 673/2/6 675/2/6
f 676/1/6 677/1/6 678/1/6
f 678/1/6 677/1/6 679/1/6
f 679/1/6 677/1/6 680/1/6
f 680/1/6 677/1/6 681/1/6
f 679/1/6 680/1/6 682/1/6
f 682/1/6 680/1/6 683/1/6
