# MagicaVoxel @ Ephtracy

# group
o 

# material
mtllib chicken-10.mtl
usemtl palette

# normals
vn -1 0 0
vn 1 0 0
vn 0 0 1
vn 0 0 -1
vn 0 -1 0
vn 0 1 0

# texcoords
vt 0.986328 0.5
vt 0.990234 0.5

# verts
v -0.5 -0.3 0.5
v -0.5 -0.3 0.2
v -0.5 -0.1 0.5
v -0.5 -0.1 0.3
v -0.5 -0.1 0.2
v -0.5 0 0.5
v -0.5 0 0.3
v -0.4 -0.3 0.6
v -0.4 -0.3 0.5
v -0.4 -0.3 0.2
v -0.4 -0.3 0.1
v -0.4 -0.2 0.2
v -0.4 -0.2 0.1
v -0.4 -0.1 0.6
v -0.4 -0.1 0.5
v -0.4 -0.1 0.3
v -0.4 -0.1 0.2
v -0.4 0 0.5
v -0.4 0 0.3
v -0.4 0 0.2
v -0.4 0 0
v -0.4 0 -0.1
v -0.4 0.1 0.5
v -0.4 0.1 0.3
v -0.4 0.1 0
v -0.4 0.1 -0.1
v -0.3 -0.3 0.7
v -0.3 -0.3 0.6
v -0.3 -0.3 0.1
v -0.3 -0.3 -0.6
v -0.3 -0.2 0.7
v -0.3 -0.2 0.6
v -0.3 -0.2 0.2
v -0.3 -0.2 0.1
v -0.3 -0.2 -0.3
v -0.3 -0.2 -0.4
v -0.3 -0.2 -0.5
v -0.3 -0.1 0.2
v -0.3 -0.1 -0.3
v -0.3 -0.1 -0.5
v -0.3 -0.1 -0.6
v -0.3 0 0.2
v -0.3 0 0.1
v -0.3 0 0
v -0.3 0 -0.1
v -0.3 0 -0.4
v -0.3 0 -0.5
v -0.3 0.1 0.2
v -0.3 0.1 0.1
v -0.3 0.1 0
v -0.3 0.1 -0.1
v -0.3 0.1 -0.3
v -0.3 0.1 -0.5
v -0.3 0.2 0
v -0.3 0.2 -0.1
v -0.3 0.2 -0.2
v -0.3 0.2 -0.3
v -0.3 0.3 -0.1
v -0.3 0.3 -0.2
v -0.2 -0.3 -0.6
v -0.2 -0.3 -0.7
v -0.2 -0.2 -0.4
v -0.2 -0.2 -0.5
v -0.2 -0.1 -0.5
v -0.2 -0.1 -0.6
v -0.2 -0.1 -0.7
v -0.2 0 0.3
v -0.2 0 0.2
v -0.2 0 -0.4
v -0.2 0 -0.5
v -0.2 0 -0.6
v -0.2 0.1 0.3
v -0.2 0.1 0.2
v -0.2 0.1 -0.3
v -0.2 0.1 -0.5
v -0.2 0.2 -0.2
v -0.2 0.2 -0.3
v -0.2 0.2 -0.5
v -0.2 0.3 -0.1
v -0.2 0.3 -0.2
v -0.2 0.3 -0.3
v -0.2 0.4 -0.1
v -0.2 0.4 -0.2
v -0.1 -0.1 0.1
v -0.1 -0.1 0
v -0.1 0 0.1
v -0.1 0 0
v -0.1 0.2 -0.3
v -0.1 0.2 -0.5
v -0.1 0.3 -0.3
v -0.1 0.3 -0.5
v 0 -0.1 -0.6
v 0 -0.1 -0.7
v 0 0 -0.6
v 0 0 -0.7
v 0.1 -0.3 0.5
v 0.1 -0.3 0.4
v 0.1 -0.2 0.5
v 0.1 -0.2 0.4
v 0.1 -0.2 0.3
v 0.1 -0.1 0.4
v 0.1 -0.1 0.3
v 0.1 0 0
v 0.1 0 -0.1
v 0.1 0.1 0
v 0.1 0.1 -0.1
v 0.3 0.1 -0.3
v 0.3 0.1 -0.4
v 0.3 0.2 -0.3
v 0.3 0.2 -0.4
v -0.2 -0.3 0.7
v -0.2 -0.3 0.6
v -0.2 -0.2 0.7
v -0.2 -0.2 0.6
v -0.2 -0.2 0.5
v -0.2 -0.1 0.6
v -0.2 -0.1 0.5
v -0.2 -0.1 0.4
v -0.2 -0.1 0.1
v -0.2 -0.1 0
v -0.2 0 0.4
v -0.2 0 0.3
v -0.2 0 0.1
v -0.2 0 0
v -0.2 0.1 0.5
v -0.2 0.1 0.3
v -0.1 -0.2 -0.6
v -0.1 -0.2 -0.7
v -0.1 -0.1 0.4
v -0.1 -0.1 0.3
v -0.1 -0.1 -0.6
v -0.1 -0.1 -0.7
v -0.1 0 0.4
v -0.1 0 0.3
v 0 -0.3 0.6
v 0 -0.3 0.5
v 0 -0.3 0.4
v 0 -0.2 0.6
v 0 -0.2 0.5
v 0 -0.2 0.4
v 0 -0.2 0.3
v 0 -0.2 0.1
v 0 -0.2 0
v 0 -0.1 0.5
v 0 -0.1 0.4
v 0 -0.1 0.3
v 0 -0.1 0.2
v 0 0 0.1
v 0 0 0
v 0 0 -0.1
v 0 0.1 0.3
v 0 0.1 0.2
v 0 0.2 0
v 0 0.2 -0.1
v 0 0.3 -0.1
v 0 0.3 -0.2
v 0 0.4 -0.1
v 0 0.4 -0.2
v 0.1 -0.3 0.1
v 0.1 -0.3 0
v 0.1 -0.3 -0.6
v 0.1 -0.3 -0.7
v 0.1 -0.2 0.2
v 0.1 -0.2 0.1
v 0.1 -0.2 0
v 0.1 -0.2 -0.6
v 0.1 -0.2 -0.7
v 0.1 -0.1 0.2
v 0.1 0.1 0.2
v 0.1 0.1 0.1
v 0.1 0.1 -0.4
v 0.1 0.1 -0.5
v 0.1 0.2 -0.1
v 0.1 0.2 -0.4
v 0.1 0.3 -0.1
v 0.1 0.3 -0.5
v 0.2 -0.2 0.4
v 0.2 -0.2 0.3
v 0.2 -0.2 0.2
v 0.2 -0.1 0.4
v 0.2 -0.1 0.3
v 0.2 -0.1 0.2
v 0.2 0 0
v 0.2 0 -0.1
v 0.2 0 -0.4
v 0.2 0 -0.5
v 0.2 0.1 0
v 0.2 0.1 -0.1
v 0.2 0.1 -0.2
v 0.2 0.1 -0.3
v 0.2 0.1 -0.4
v 0.2 0.1 -0.5
v 0.2 0.2 -0.1
v 0.2 0.2 -0.2
v 0.2 0.2 -0.3
v 0.2 0.2 -0.4
v 0.3 -0.3 0.5
v 0.3 -0.3 0.1
v 0.3 -0.3 -0.5
v 0.3 -0.3 -0.6
v 0.3 -0.2 0.5
v 0.3 -0.2 0.1
v 0.3 -0.2 -0.5
v 0.3 -0.2 -0.6
v 0.3 -0.1 0
v 0.3 -0.1 -0.1
v 0.3 -0.1 -0.4
v 0.3 -0.1 -0.5
v 0.3 -0.1 -0.6
v 0.3 -0.1 -0.7
v 0.3 0 0
v 0.3 0 -0.1
v 0.3 0 -0.3
v 0.3 0 -0.4
v 0.3 0 -0.7
v 0.3 0.1 -0.1
v 0.3 0.1 -0.2
v 0.3 0.2 -0.2
v 0.3 0.2 -0.3
v 0.4 -0.3 0
v 0.4 -0.3 -0.3
v 0.4 -0.3 -0.4
v 0.4 -0.3 -0.5
v 0.4 -0.2 -0.3
v 0.4 -0.2 -0.4
v 0.4 -0.1 0
v 0.4 -0.1 -0.1
v 0.4 -0.1 -0.4
v 0.4 -0.1 -0.5
v 0.4 0 -0.1
v 0.4 0 -0.3
v 0.4 0 -0.4
v 0.4 0.2 -0.3
v 0.4 0.2 -0.4
v 0.5 -0.3 -0.3
v 0.5 -0.3 -0.4
v 0.5 -0.2 -0.3
v 0.5 -0.2 -0.4
v -0.3 -0.3 0.7
v -0.3 -0.2 0.7
v -0.2 -0.3 0.7
v -0.2 -0.2 0.7
v -0.4 -0.3 0.6
v -0.4 -0.1 0.6
v -0.3 -0.3 0.6
v -0.3 -0.2 0.6
v -0.2 -0.3 0.6
v -0.2 -0.2 0.6
v -0.2 -0.1 0.6
v 0 -0.3 0.6
v 0 -0.2 0.6
v -0.5 -0.3 0.5
v -0.5 -0.1 0.5
v -0.5 0 0.5
v -0.4 -0.3 0.5
v -0.4 -0.1 0.5
v -0.4 0 0.5
v -0.4 0.1 0.5
v -0.2 -0.2 0.5
v -0.2 -0.1 0.5
v -0.2 0.1 0.5
v -0.1 -0.2 0.5
v -0.1 -0.1 0.5
v 0 -0.2 0.5
v 0 -0.1 0.5
v 0.1 -0.3 0.5
v 0.1 -0.2 0.5
v 0.3 -0.3 0.5
v 0.3 -0.2 0.5
v -0.2 -0.1 0.4
v -0.2 0 0.4
v -0.1 -0.1 0.4
v -0.1 0 0.4
v 0 -0.3 0.4
v 0 -0.2 0.4
v 0.1 -0.3 0.4
v 0.1 -0.2 0.4
v 0.1 -0.1 0.4
v 0.2 -0.2 0.4
v 0.2 -0.1 0.4
v -0.2 0 0.3
v -0.2 0.1 0.3
v -0.1 -0.1 0.3
v -0.1 0 0.3
v 0 -0.2 0.3
v 0 -0.1 0.3
v 0 0.1 0.3
v 0.1 -0.2 0.3
v 0.1 -0.1 0.3
v -0.3 0 0.2
v -0.3 0.1 0.2
v -0.2 0 0.2
v -0.2 0.1 0.2
v 0 -0.1 0.2
v 0 0.1 0.2
v 0.1 -0.1 0.2
v 0.1 0.1 0.2
v -0.4 0 0
v -0.4 0.1 0
v -0.3 0 0
v -0.3 0.1 0
v -0.3 0.2 0
v -0.2 -0.1 0
v -0.2 0 0
v -0.1 -0.1 0
v -0.1 0 0
v 0 -0.2 0
v 0 0 0
v 0 0.2 0
v 0.1 -0.3 0
v 0.1 -0.2 0
v 0.1 0 0
v 0.1 0.1 0
v 0.2 0 0
v 0.2 0.1 0
v 0.3 -0.3 0
v 0.3 -0.1 0
v 0.3 0 0
v 0.4 -0.3 0
v 0.4 -0.1 0
v -0.3 0.2 -0.1
v -0.3 0.3 -0.1
v -0.2 0.3 -0.1
v -0.2 0.4 -0.1
v 0 0 -0.1
v 0 0.2 -0.1
v 0 0.3 -0.1
v 0 0.4 -0.1
v 0.1 0 -0.1
v 0.1 0.1 -0.1
v 0.1 0.2 -0.1
v 0.1 0.3 -0.1
v 0.2 0 -0.1
v 0.2 0.1 -0.1
v 0.2 0.2 -0.1
v 0.3 -0.1 -0.1
v 0.3 0 -0.1
v 0.3 0.1 -0.1
v 0.4 -0.1 -0.1
v 0.4 0 -0.1
v 0.2 0.1 -0.2
v 0.2 0.2 -0.2
v 0.3 0.1 -0.2
v 0.3 0.2 -0.2
v 0.3 0 -0.3
v 0.3 0.2 -0.3
v 0.4 -0.3 -0.3
v 0.4 -0.2 -0.3
v 0.4 0 -0.3
v 0.4 0.2 -0.3
v 0.5 -0.3 -0.3
v 0.5 -0.2 -0.3
v -0.3 -0.2 -0.5
v -0.3 -0.1 -0.5
v -0.2 -0.2 -0.5
v -0.2 -0.1 -0.5
v -0.5 -0.1 0.3
v -0.5 0 0.3
v -0.4 -0.1 0.3
v -0.4 0 0.3
v -0.4 0.1 0.3
v -0.2 0 0.3
v -0.2 0.1 0.3
v -0.5 -0.3 0.2
v -0.5 -0.1 0.2
v -0.4 -0.3 0.2
v -0.4 -0.2 0.2
v -0.4 -0.1 0.2
v -0.4 0 0.2
v -0.3 -0.2 0.2
v -0.3 -0.1 0.2
v -0.3 0 0.2
v 0.1 -0.2 0.2
v 0.1 -0.1 0.2
v 0.2 -0.2 0.2
v 0.2 -0.1 0.2
v -0.4 -0.3 0.1
v -0.4 -0.2 0.1
v -0.3 -0.3 0.1
v -0.3 -0.2 0.1
v -0.3 0 0.1
v -0.3 0.1 0.1
v -0.2 -0.1 0.1
v -0.2 0 0.1
v -0.1 -0.1 0.1
v -0.1 0 0.1
v 0 -0.2 0.1
v 0 0 0.1
v 0.1 -0.3 0.1
v 0.1 -0.2 0.1
v 0.1 0.1 0.1
v 0.2 -0.3 0.1
v 0.2 -0.2 0.1
v 0.3 -0.3 0.1
v 0.3 -0.2 0.1
v -0.4 0 -0.1
v -0.4 0.1 -0.1
v -0.3 0 -0.1
v -0.3 0.1 -0.1
v -0.3 0.2 -0.2
v -0.3 0.3 -0.2
v -0.2 0.2 -0.2
v -0.2 0.3 -0.2
v -0.2 0.4 -0.2
v 0 0.3 -0.2
v 0 0.4 -0.2
v -0.3 0.1 -0.3
v -0.3 0.2 -0.3
v -0.2 0.1 -0.3
v -0.2 0.2 -0.3
v -0.2 0.3 -0.3
v -0.1 0.2 -0.3
v -0.1 0.3 -0.3
v 0.2 0.1 -0.3
v 0.2 0.2 -0.3
v 0.3 0.1 -0.3
v 0.3 0.2 -0.3
v -0.3 -0.2 -0.4
v -0.3 0 -0.4
v -0.2 -0.2 -0.4
v -0.2 0 -0.4
v 0.1 0.1 -0.4
v 0.1 0.2 -0.4
v 0.2 0 -0.4
v 0.2 0.1 -0.4
v 0.2 0.2 -0.4
v 0.3 -0.1 -0.4
v 0.3 0 -0.4
v 0.3 0.1 -0.4
v 0.3 0.2 -0.4
v 0.4 -0.3 -0.4
v 0.4 -0.2 -0.4
v 0.4 -0.1 -0.4
v 0.4 0 -0.4
v 0.4 0.2 -0.4
v 0.5 -0.3 -0.4
v 0.5 -0.2 -0.4
v -0.3 0 -0.5
v -0.3 0.1 -0.5
v -0.2 0 -0.5
v -0.2 0.1 -0.5
v -0.2 0.2 -0.5
v -0.1 0.2 -0.5
v -0.1 0.3 -0.5
v 0 0 -0.5
v 0.1 0.1 -0.5
v 0.1 0.3 -0.5
v 0.2 0 -0.5
v 0.2 0.1 -0.5
v 0.3 -0.3 -0.5
v 0.3 -0.2 -0.5
v 0.3 -0.1 -0.5
v 0.4 -0.3 -0.5
v 0.4 -0.1 -0.5
v -0.3 -0.3 -0.6
v -0.3 -0.1 -0.6
v -0.2 -0.3 -0.6
v -0.2 -0.1 -0.6
v -0.2 0 -0.6
v -0.1 -0.2 -0.6
v -0.1 -0.1 -0.6
v 0 -0.1 -0.6
v 0 0 -0.6
v 0.1 -0.3 -0.6
v 0.1 -0.2 -0.6
v 0.1 -0.1 -0.6
v 0.3 -0.3 -0.6
v 0.3 -0.2 -0.6
v 0.3 -0.1 -0.6
v -0.2 -0.3 -0.7
v -0.2 -0.1 -0.7
v -0.1 -0.2 -0.7
v -0.1 -0.1 -0.7
v 0 -0.1 -0.7
v 0 0 -0.7
v 0.1 -0.3 -0.7
v 0.1 -0.2 -0.7
v 0.3 -0.1 -0.7
v 0.3 0 -0.7
v -0.3 -0.3 0.7
v -0.2 -0.3 0.7
v -0.4 -0.3 0.6
v -0.3 -0.3 0.6
v -0.2 -0.3 0.6
v 0 -0.3 0.6
v -0.5 -0.3 0.5
v -0.4 -0.3 0.5
v -0.3 -0.3 0.5
v -0.2 -0.3 0.5
v 0 -0.3 0.5
v 0.1 -0.3 0.5
v 0.3 -0.3 0.5
v 0 -0.3 0.4
v 0.1 -0.3 0.4
v 0.2 -0.3 0.4
v -0.5 -0.3 0.2
v -0.4 -0.3 0.2
v -0.3 -0.3 0.2
v -0.4 -0.3 0.1
v -0.3 -0.3 0.1
v -0.2 -0.3 0.1
v 0.1 -0.3 0.1
v 0.2 -0.3 0.1
v 0.3 -0.3 0.1
v 0.1 -0.3 0
v 0.3 -0.3 0
v 0.4 -0.3 0
v 0.3 -0.3 -0.3
v 0.4 -0.3 -0.3
v 0.5 -0.3 -0.3
v 0.3 -0.3 -0.4
v 0.4 -0.3 -0.4
v 0.5 -0.3 -0.4
v 0.1 -0.3 -0.5
v 0.3 -0.3 -0.5
v 0.4 -0.3 -0.5
v -0.3 -0.3 -0.6
v -0.2 -0.3 -0.6
v 0.1 -0.3 -0.6
v 0.3 -0.3 -0.6
v -0.2 -0.3 -0.7
v 0.1 -0.3 -0.7
v 0 -0.1 -0.6
v 0.1 -0.1 -0.6
v 0.3 -0.1 -0.6
v 0 -0.1 -0.7
v 0.3 -0.1 -0.7
v -0.4 0 0
v -0.3 0 0
v -0.4 0 -0.1
v -0.3 0 -0.1
v -0.3 0 -0.4
v -0.2 0 -0.4
v -0.3 0 -0.5
v -0.2 0 -0.5
v -0.3 -0.2 0.7
v -0.2 -0.2 0.7
v -0.3 -0.2 0.6
v -0.2 -0.2 0.6
v 0 -0.2 0.6
v -0.2 -0.2 0.5
v -0.1 -0.2 0.5
v 0 -0.2 0.5
v 0.1 -0.2 0.5
v 0.3 -0.2 0.5
v 0 -0.2 0.4
v 0.1 -0.2 0.4
v 0.2 -0.2 0.4
v 0 -0.2 0.3
v 0.1 -0.2 0.3
v 0.2 -0.2 0.3
v -0.4 -0.2 0.2
v -0.3 -0.2 0.2
v 0.1 -0.2 0.2
v 0.2 -0.2 0.2
v -0.4 -0.2 0.1
v -0.3 -0.2 0.1
v 0 -0.2 0.1
v 0.1 -0.2 0.1
v 0.2 -0.2 0.1
v 0.3 -0.2 0.1
v 0 -0.2 0
v 0.1 -0.2 0
v 0.4 -0.2 -0.3
v 0.5 -0.2 -0.3
v -0.3 -0.2 -0.4
v -0.2 -0.2 -0.4
v 0.4 -0.2 -0.4
v 0.5 -0.2 -0.4
v -0.3 -0.2 -0.5
v -0.2 -0.2 -0.5
v -0.1 -0.2 -0.6
v 0.1 -0.2 -0.6
v -0.1 -0.2 -0.7
v 0.1 -0.2 -0.7
v -0.4 -0.1 0.6
v -0.2 -0.1 0.6
v -0.4 -0.1 0.5
v -0.2 -0.1 0.5
v -0.1 -0.1 0.5
v 0 -0.1 0.5
v -0.2 -0.1 0.4
v -0.1 -0.1 0.4
v 0 -0.1 0.4
v 0.1 -0.1 0.4
v 0.2 -0.1 0.4
v -0.5 -0.1 0.3
v -0.4 -0.1 0.3
v -0.1 -0.1 0.3
v 0 -0.1 0.3
v 0.1 -0.1 0.3
v 0.2 -0.1 0.3
v -0.5 -0.1 0.2
v -0.4 -0.1 0.2
v 0 -0.1 0.2
v 0.1 -0.1 0.2
v 0.2 -0.1 0.2
v -0.2 -0.1 0.1
v -0.1 -0.1 0.1
v -0.2 -0.1 0
v -0.1 -0.1 0
v 0.3 -0.1 0
v 0.4 -0.1 0
v 0.3 -0.1 -0.1
v 0.4 -0.1 -0.1
v 0.3 -0.1 -0.4
v 0.4 -0.1 -0.4
v -0.3 -0.1 -0.5
v -0.2 -0.1 -0.5
v 0.3 -0.1 -0.5
v 0.4 -0.1 -0.5
v -0.3 -0.1 -0.6
v -0.2 -0.1 -0.6
v -0.1 -0.1 -0.6
v -0.2 -0.1 -0.7
v -0.1 -0.1 -0.7
v -0.5 0 0.5
v -0.4 0 0.5
v -0.2 0 0.4
v -0.1 0 0.4
v -0.5 0 0.3
v -0.4 0 0.3
v -0.2 0 0.3
v -0.1 0 0.3
v -0.4 0 0.2
v -0.3 0 0.2
v -0.2 0 0.2
v -0.3 0 0.1
v -0.2 0 0.1
v -0.1 0 0.1
v 0 0 0.1
v -0.3 0 0
v -0.2 0 0
v -0.1 0 0
v 0 0 0
v 0.1 0 0
v 0.2 0 0
v 0.3 0 0
v 0 0 -0.1
v 0.1 0 -0.1
v 0.2 0 -0.1
v 0.3 0 -0.1
v 0.4 0 -0.1
v 0.3 0 -0.3
v 0.4 0 -0.3
v 0.2 0 -0.4
v 0.3 0 -0.4
v -0.2 0 -0.5
v 0 0 -0.5
v 0.2 0 -0.5
v -0.2 0 -0.6
v 0 0 -0.6
v 0 0 -0.7
v 0.3 0 -0.7
v -0.4 0.1 0.5
v -0.2 0.1 0.5
v -0.4 0.1 0.3
v -0.2 0.1 0.3
v 0 0.1 0.3
v -0.3 0.1 0.2
v -0.2 0.1 0.2
v 0 0.1 0.2
v 0.1 0.1 0.2
v -0.3 0.1 0.1
v 0.1 0.1 0.1
v -0.4 0.1 0
v -0.3 0.1 0
v 0.1 0.1 0
v 0.2 0.1 0
v -0.4 0.1 -0.1
v -0.3 0.1 -0.1
v 0.1 0.1 -0.1
v 0.2 0.1 -0.1
v 0.3 0.1 -0.1
v 0.2 0.1 -0.2
v 0.3 0.1 -0.2
v -0.3 0.1 -0.3
v -0.2 0.1 -0.3
v 0.2 0.1 -0.3
v 0.3 0.1 -0.3
v 0.1 0.1 -0.4
v 0.2 0.1 -0.4
v 0.3 0.1 -0.4
v -0.3 0.1 -0.5
v -0.2 0.1 -0.5
v 0.1 0.1 -0.5
v 0.2 0.1 -0.5
v -0.3 0.2 0
v 0 0.2 0
v -0.3 0.2 -0.1
v 0 0.2 -0.1
v 0.1 0.2 -0.1
v 0.2 0.2 -0.1
v -0.3 0.2 -0.2
v -0.2 0.2 -0.2
v 0.2 0.2 -0.2
v 0.3 0.2 -0.2
v -0.3 0.2 -0.3
v -0.2 0.2 -0.3
v -0.1 0.2 -0.3
v 0.2 0.2 -0.3
v 0.3 0.2 -0.3
v 0.4 0.2 -0.3
v 0.1 0.2 -0.4
v 0.2 0.2 -0.4
v 0.3 0.2 -0.4
v 0.4 0.2 -0.4
v -0.2 0.2 -0.5
v -0.1 0.2 -0.5
v -0.3 0.3 -0.1
v -0.2 0.3 -0.1
v 0 0.3 -0.1
v 0.1 0.3 -0.1
v -0.3 0.3 -0.2
v -0.2 0.3 -0.2
v 0 0.3 -0.2
v -0.2 0.3 -0.3
v -0.1 0.3 -0.3
v -0.1 0.3 -0.5
v 0.1 0.3 -0.5
v -0.2 0.4 -0.1
v 0 0.4 -0.1
v -0.2 0.4 -0.2
v 0 0.4 -0.2

# faces
f 3/2/1 2/2/1 1/2/1
f 4/2/1 2/2/1 3/2/1
f 5/2/1 2/2/1 4/2/1
f 6/1/1 4/1/1 3/1/1
f 7/1/1 4/1/1 6/1/1
f 12/2/1 11/2/1 10/2/1
f 13/2/1 11/2/1 12/2/1
f 14/2/1 9/2/1 8/2/1
f 15/2/1 9/2/1 14/2/1
f 19/1/1 17/1/1 16/1/1
f 20/1/1 17/1/1 19/1/1
f 23/1/1 19/1/1 18/1/1
f 24/1/1 19/1/1 23/1/1
f 25/1/1 22/1/1 21/1/1
f 26/1/1 22/1/1 25/1/1
f 31/2/1 28/2/1 27/2/1
f 32/2/1 28/2/1 31/2/1
f 34/2/1 30/2/1 29/2/1
f 35/2/1 30/2/1 34/2/1
f 36/2/1 30/2/1 35/2/1
f 37/2/1 30/2/1 36/2/1
f 38/2/1 34/2/1 33/2/1
f 38/2/1 35/2/1 34/2/1
f 39/1/1 36/1/1 35/1/1
f 39/2/1 35/2/1 38/2/1
f 40/2/1 30/2/1 37/2/1
f 41/2/1 30/2/1 40/2/1
f 42/1/1 39/1/1 38/1/1
f 43/1/1 39/1/1 42/1/1
f 44/1/1 39/1/1 43/1/1
f 45/1/1 39/1/1 44/1/1
f 46/1/1 36/1/1 39/1/1
f 46/1/1 39/1/1 45/1/1
f 48/1/1 43/1/1 42/1/1
f 49/1/1 43/1/1 48/1/1
f 51/1/1 47/1/1 46/1/1
f 51/1/1 46/1/1 45/1/1
f 52/1/1 47/1/1 51/1/1
f 53/1/1 47/1/1 52/1/1
f 54/1/1 51/1/1 50/1/1
f 54/1/1 52/1/1 51/1/1
f 55/1/1 52/1/1 54/1/1
f 56/1/1 52/1/1 55/1/1
f 57/1/1 52/1/1 56/1/1
f 58/1/1 56/1/1 55/1/1
f 59/1/1 56/1/1 58/1/1
f 64/1/1 63/1/1 62/1/1
f 65/2/1 61/2/1 60/2/1
f 66/2/1 61/2/1 65/2/1
f 69/1/1 64/1/1 62/1/1
f 70/2/1 65/2/1 64/2/1
f 70/1/1 64/1/1 69/1/1
f 71/2/1 65/2/1 70/2/1
f 72/1/1 68/1/1 67/1/1
f 73/1/1 68/1/1 72/1/1
f 77/1/1 75/1/1 74/1/1
f 78/1/1 75/1/1 77/1/1
f 80/1/1 77/1/1 76/1/1
f 81/1/1 77/1/1 80/1/1
f 82/1/1 80/1/1 79/1/1
f 83/1/1 80/1/1 82/1/1
f 86/1/1 85/1/1 84/1/1
f 87/1/1 85/1/1 86/1/1
f 90/1/1 89/1/1 88/1/1
f 91/1/1 89/1/1 90/1/1
f 94/1/1 93/1/1 92/1/1
f 95/1/1 93/1/1 94/1/1
f 98/2/1 97/2/1 96/2/1
f 99/2/1 97/2/1 98/2/1
f 101/1/1 100/1/1 99/1/1
f 102/1/1 100/1/1 101/1/1
f 105/1/1 104/1/1 103/1/1
f 106/1/1 104/1/1 105/1/1
f 109/1/1 108/1/1 107/1/1
f 110/1/1 108/1/1 109/1/1
f 111/2/2 112/2/2 113/2/2
f 113/2/2 112/2/2 114/2/2
f 114/2/2 115/2/2 116/2/2
f 116/2/2 115/2/2 117/2/2
f 117/1/2 118/1/2 121/1/2
f 119/1/2 120/1/2 123/1/2
f 123/1/2 120/1/2 124/1/2
f 121/1/2 122/1/2 125/1/2
f 117/1/2 121/1/2 125/1/2
f 125/1/2 122/1/2 126/1/2
f 127/2/2 128/2/2 131/2/2
f 131/2/2 128/2/2 132/2/2
f 129/1/2 130/1/2 133/1/2
f 133/1/2 130/1/2 134/1/2
f 135/2/2 136/2/2 138/2/2
f 136/1/2 137/1/2 139/1/2
f 138/2/2 136/2/2 139/2/2
f 139/1/2 137/1/2 140/1/2
f 139/2/2 140/2/2 144/2/2
f 140/1/2 141/1/2 145/1/2
f 144/2/2 140/2/2 145/2/2
f 145/1/2 141/1/2 146/1/2
f 142/1/2 143/1/2 148/1/2
f 148/1/2 143/1/2 149/1/2
f 146/1/2 147/1/2 151/1/2
f 151/1/2 147/1/2 152/1/2
f 149/1/2 150/1/2 153/1/2
f 153/1/2 150/1/2 154/1/2
f 155/1/2 156/1/2 157/1/2
f 157/1/2 156/1/2 158/1/2
f 159/1/2 160/1/2 164/1/2
f 164/1/2 160/1/2 165/1/2
f 161/2/2 162/2/2 166/2/2
f 166/2/2 162/2/2 167/2/2
f 163/1/2 164/1/2 168/1/2
f 168/1/2 164/1/2 169/1/2
f 169/1/2 164/1/2 170/1/2
f 171/1/2 172/1/2 174/1/2
f 173/1/2 174/1/2 175/1/2
f 174/1/2 172/1/2 176/1/2
f 175/1/2 174/1/2 176/1/2
f 177/1/2 178/1/2 180/1/2
f 178/2/2 179/2/2 181/2/2
f 180/1/2 178/1/2 181/1/2
f 181/2/2 179/2/2 182/2/2
f 183/1/2 184/1/2 187/1/2
f 187/1/2 184/1/2 188/1/2
f 185/1/2 186/1/2 191/1/2
f 191/1/2 186/1/2 192/1/2
f 188/1/2 189/1/2 193/1/2
f 193/1/2 189/1/2 194/1/2
f 190/1/2 191/1/2 195/1/2
f 195/1/2 191/1/2 196/1/2
f 197/2/2 198/2/2 201/2/2
f 201/2/2 198/2/2 202/2/2
f 199/2/2 200/2/2 203/2/2
f 203/2/2 200/2/2 204/2/2
f 203/1/2 204/1/2 208/1/2
f 208/1/2 204/1/2 209/1/2
f 205/1/2 206/1/2 211/1/2
f 211/1/2 206/1/2 212/1/2
f 208/1/2 209/1/2 214/1/2
f 209/1/2 210/1/2 214/1/2
f 207/1/2 208/1/2 214/1/2
f 214/1/2 210/1/2 215/1/2
f 212/1/2 213/1/2 216/1/2
f 216/1/2 213/1/2 217/1/2
f 217/1/2 213/1/2 218/1/2
f 218/1/2 213/1/2 219/1/2
f 220/2/2 221/2/2 224/2/2
f 222/2/2 223/2/2 225/2/2
f 220/2/2 224/2/2 226/2/2
f 224/2/2 225/2/2 226/2/2
f 226/2/2 225/2/2 227/2/2
f 225/2/2 223/2/2 228/2/2
f 227/2/2 225/2/2 228/2/2
f 228/2/2 223/2/2 229/2/2
f 227/2/2 228/2/2 230/2/2
f 230/2/2 228/2/2 231/2/2
f 231/2/2 228/2/2 232/2/2
f 231/1/2 232/1/2 233/1/2
f 233/1/2 232/1/2 234/1/2
f 235/2/2 236/2/2 237/2/2
f 237/2/2 236/2/2 238/2/2
f 241/2/3 240/2/3 239/2/3
f 242/2/3 240/2/3 241/2/3
f 245/2/3 244/2/3 243/2/3
f 246/2/3 244/2/3 245/2/3
f 248/2/3 244/2/3 246/2/3
f 249/2/3 244/2/3 248/2/3
f 250/2/3 248/2/3 247/2/3
f 251/2/3 248/2/3 250/2/3
f 255/2/3 253/2/3 252/2/3
f 256/1/3 254/1/3 253/1/3
f 256/2/3 253/2/3 255/2/3
f 257/1/3 254/1/3 256/1/3
f 260/1/3 258/1/3 257/1/3
f 260/1/3 257/1/3 256/1/3
f 261/1/3 258/1/3 260/1/3
f 262/1/3 260/1/3 259/1/3
f 263/1/3 260/1/3 262/1/3
f 264/2/3 263/2/3 262/2/3
f 265/2/3 263/2/3 264/2/3
f 268/2/3 267/2/3 266/2/3
f 269/2/3 267/2/3 268/2/3
f 272/1/3 271/1/3 270/1/3
f 273/1/3 271/1/3 272/1/3
f 276/1/3 275/1/3 274/1/3
f 277/1/3 275/1/3 276/1/3
f 279/1/3 278/1/3 277/1/3
f 280/1/3 278/1/3 279/1/3
f 284/1/3 282/1/3 281/1/3
f 286/1/3 284/1/3 283/1/3
f 287/1/3 282/1/3 284/1/3
f 287/1/3 284/1/3 286/1/3
f 288/1/3 286/1/3 285/1/3
f 289/1/3 286/1/3 288/1/3
f 292/1/3 291/1/3 290/1/3
f 293/1/3 291/1/3 292/1/3
f 296/1/3 295/1/3 294/1/3
f 297/1/3 295/1/3 296/1/3
f 300/1/3 299/1/3 298/1/3
f 301/1/3 299/1/3 300/1/3
f 304/1/3 301/1/3 300/1/3
f 304/1/3 302/1/3 301/1/3
f 305/1/3 304/1/3 303/1/3
f 306/1/3 302/1/3 304/1/3
f 306/1/3 304/1/3 305/1/3
f 308/1/3 302/1/3 306/1/3
f 309/1/3 302/1/3 308/1/3
f 311/1/3 308/1/3 307/1/3
f 312/1/3 308/1/3 311/1/3
f 314/1/3 311/1/3 310/1/3
f 314/1/3 313/1/3 312/1/3
f 314/1/3 312/1/3 311/1/3
f 315/1/3 313/1/3 314/1/3
f 316/1/3 314/1/3 310/1/3
f 317/1/3 314/1/3 316/1/3
f 318/1/3 314/1/3 317/1/3
f 319/2/3 317/2/3 316/2/3
f 320/2/3 317/2/3 319/2/3
f 323/1/3 322/1/3 321/1/3
f 326/1/3 323/1/3 321/1/3
f 326/1/3 324/1/3 323/1/3
f 327/1/3 324/1/3 326/1/3
f 328/1/3 324/1/3 327/1/3
f 329/1/3 326/1/3 325/1/3
f 329/1/3 327/1/3 326/1/3
f 330/1/3 327/1/3 329/1/3
f 331/1/3 327/1/3 330/1/3
f 332/1/3 327/1/3 331/1/3
f 334/1/3 331/1/3 330/1/3
f 335/1/3 331/1/3 334/1/3
f 337/1/3 334/1/3 333/1/3
f 338/1/3 334/1/3 337/1/3
f 339/2/3 337/2/3 336/2/3
f 340/2/3 337/2/3 339/2/3
f 343/1/3 342/1/3 341/1/3
f 344/1/3 342/1/3 343/1/3
f 349/1/3 346/1/3 345/1/3
f 350/1/3 346/1/3 349/1/3
f 351/2/3 348/2/3 347/2/3
f 352/2/3 348/2/3 351/2/3
f 355/2/3 354/2/3 353/2/3
f 356/2/3 354/2/3 355/2/3
f 357/1/4 358/1/4 359/1/4
f 359/1/4 358/1/4 360/1/4
f 360/1/4 361/1/4 362/1/4
f 362/1/4 361/1/4 363/1/4
f 364/2/4 365/2/4 366/2/4
f 366/2/4 365/2/4 367/2/4
f 367/2/4 365/2/4 368/2/4
f 368/1/4 369/1/4 370/1/4
f 367/1/4 368/1/4 370/1/4
f 370/1/4 369/1/4 371/1/4
f 371/1/4 369/1/4 372/1/4
f 373/2/4 374/2/4 375/2/4
f 375/2/4 374/2/4 376/2/4
f 377/2/4 378/2/4 379/2/4
f 379/2/4 378/2/4 380/2/4
f 381/1/4 382/1/4 384/1/4
f 383/1/4 384/1/4 385/1/4
f 384/1/4 382/1/4 386/1/4
f 385/1/4 384/1/4 386/1/4
f 386/1/4 382/1/4 388/1/4
f 387/1/4 388/1/4 390/1/4
f 388/1/4 382/1/4 391/1/4
f 390/1/4 388/1/4 391/1/4
f 389/1/4 390/1/4 392/1/4
f 392/1/4 390/1/4 393/1/4
f 392/2/4 393/2/4 394/2/4
f 394/2/4 393/2/4 395/2/4
f 396/1/4 397/1/4 398/1/4
f 398/1/4 397/1/4 399/1/4
f 400/1/4 401/1/4 402/1/4
f 402/1/4 401/1/4 403/1/4
f 403/1/4 404/1/4 405/1/4
f 405/1/4 404/1/4 406/1/4
f 407/1/4 408/1/4 409/1/4
f 409/1/4 408/1/4 410/1/4
f 410/1/4 411/1/4 412/1/4
f 412/1/4 411/1/4 413/1/4
f 414/1/4 415/1/4 416/1/4
f 416/1/4 415/1/4 417/1/4
f 418/1/4 419/1/4 420/1/4
f 420/1/4 419/1/4 421/1/4
f 422/1/4 423/1/4 425/1/4
f 425/1/4 423/1/4 426/1/4
f 424/1/4 425/1/4 428/1/4
f 428/1/4 425/1/4 429/1/4
f 427/2/4 428/2/4 433/2/4
f 428/1/4 429/1/4 434/1/4
f 433/2/4 428/2/4 434/2/4
f 429/1/4 430/1/4 434/1/4
f 434/1/4 430/1/4 435/1/4
f 431/2/4 432/2/4 436/2/4
f 436/2/4 432/2/4 437/2/4
f 438/1/4 439/1/4 440/1/4
f 440/1/4 439/1/4 441/1/4
f 440/1/4 441/1/4 443/1/4
f 441/1/4 442/1/4 443/1/4
f 440/1/4 443/1/4 445/1/4
f 443/1/4 444/1/4 445/1/4
f 445/1/4 444/1/4 446/1/4
f 446/1/4 444/1/4 447/1/4
f 445/1/4 446/1/4 448/1/4
f 448/1/4 446/1/4 449/1/4
f 450/2/4 451/2/4 453/2/4
f 451/2/4 452/2/4 453/2/4
f 453/2/4 452/2/4 454/2/4
f 455/2/4 456/2/4 457/2/4
f 457/2/4 456/2/4 458/2/4
f 458/2/4 459/2/4 461/2/4
f 461/2/4 459/2/4 462/2/4
f 460/2/4 461/2/4 462/2/4
f 462/2/4 459/2/4 463/2/4
f 460/2/4 462/2/4 465/2/4
f 465/2/4 462/2/4 466/2/4
f 464/2/4 465/2/4 467/2/4
f 465/1/4 466/1/4 468/1/4
f 467/2/4 465/2/4 468/2/4
f 468/1/4 466/1/4 469/1/4
f 470/2/4 471/2/4 472/2/4
f 472/2/4 471/2/4 473/2/4
f 470/2/4 472/2/4 476/2/4
f 476/2/4 472/2/4 477/2/4
f 474/1/4 475/1/4 478/1/4
f 478/1/4 475/1/4 479/1/4
f 483/2/5 481/2/5 480/2/5
f 484/2/5 481/2/5 483/2/5
f 487/2/5 483/2/5 482/2/5
f 488/1/5 484/1/5 483/1/5
f 488/2/5 483/2/5 487/2/5
f 489/2/5 485/2/5 484/2/5
f 489/1/5 484/1/5 488/1/5
f 490/2/5 485/2/5 489/2/5
f 493/1/5 488/1/5 487/1/5
f 493/1/5 489/1/5 488/1/5
f 493/1/5 490/1/5 489/1/5
f 494/2/5 492/2/5 491/2/5
f 495/2/5 492/2/5 494/2/5
f 496/2/5 487/2/5 486/2/5
f 497/1/5 493/1/5 487/1/5
f 497/2/5 487/2/5 496/2/5
f 497/1/5 494/1/5 493/1/5
f 497/1/5 495/1/5 494/1/5
f 498/1/5 495/1/5 497/1/5
f 499/2/5 498/2/5 497/2/5
f 500/1/5 495/1/5 498/1/5
f 500/2/5 498/2/5 499/2/5
f 501/1/5 495/1/5 500/1/5
f 502/1/5 495/1/5 501/1/5
f 503/2/5 492/2/5 495/2/5
f 503/1/5 495/1/5 502/1/5
f 504/2/5 492/2/5 503/2/5
f 505/1/5 502/1/5 501/1/5
f 508/1/5 506/1/5 505/1/5
f 508/2/5 507/2/5 506/2/5
f 509/2/5 507/2/5 508/2/5
f 511/1/5 508/1/5 505/1/5
f 511/1/5 509/1/5 508/1/5
f 512/2/5 510/2/5 509/2/5
f 512/1/5 509/1/5 511/1/5
f 513/2/5 510/2/5 512/2/5
f 514/1/5 505/1/5 501/1/5
f 514/1/5 511/1/5 505/1/5
f 515/2/5 512/2/5 511/2/5
f 515/1/5 511/1/5 514/1/5
f 516/2/5 512/2/5 515/2/5
f 517/2/5 501/2/5 500/2/5
f 518/1/5 514/1/5 501/1/5
f 518/2/5 501/2/5 517/2/5
f 519/2/5 515/2/5 514/2/5
f 519/1/5 514/1/5 518/1/5
f 520/2/5 515/2/5 519/2/5
f 521/2/5 519/2/5 518/2/5
f 522/2/5 519/2/5 521/2/5
f 526/1/5 524/1/5 523/1/5
f 526/1/5 525/1/5 524/1/5
f 527/1/5 525/1/5 526/1/5
f 530/1/5 529/1/5 528/1/5
f 531/1/5 529/1/5 530/1/5
f 534/1/5 533/1/5 532/1/5
f 535/1/5 533/1/5 534/1/5
f 536/2/6 537/2/6 538/2/6
f 538/2/6 537/2/6 539/2/6
f 539/2/6 540/2/6 541/2/6
f 541/2/6 540/2/6 542/2/6
f 542/2/6 540/2/6 543/2/6
f 544/2/6 545/2/6 547/2/6
f 547/2/6 545/2/6 548/2/6
f 546/1/6 547/1/6 549/1/6
f 549/1/6 547/1/6 550/1/6
f 548/2/6 545/2/6 551/2/6
f 551/2/6 545/2/6 555/2/6
f 552/2/6 553/2/6 556/2/6
f 556/2/6 553/2/6 557/2/6
f 554/1/6 555/1/6 559/1/6
f 555/2/6 545/2/6 560/2/6
f 559/1/6 555/1/6 560/1/6
f 560/2/6 545/2/6 561/2/6
f 558/1/6 559/1/6 562/1/6
f 562/1/6 559/1/6 563/1/6
f 564/2/6 565/2/6 568/2/6
f 568/2/6 565/2/6 569/2/6
f 566/2/6 567/2/6 570/2/6
f 570/2/6 567/2/6 571/2/6
f 572/2/6 573/2/6 574/2/6
f 574/2/6 573/2/6 575/2/6
f 576/2/6 577/2/6 578/2/6
f 578/2/6 577/2/6 579/2/6
f 579/1/6 580/1/6 582/1/6
f 580/2/6 581/2/6 583/2/6
f 582/1/6 580/1/6 583/1/6
f 583/2/6 581/2/6 584/2/6
f 583/1/6 584/1/6 589/1/6
f 589/1/6 584/1/6 590/1/6
f 585/1/6 586/1/6 591/1/6
f 591/1/6 586/1/6 592/1/6
f 587/2/6 588/2/6 593/2/6
f 593/2/6 588/2/6 594/2/6
f 590/1/6 591/1/6 595/1/6
f 591/2/6 592/2/6 596/2/6
f 595/1/6 591/1/6 596/1/6
f 596/2/6 592/2/6 597/2/6
f 598/1/6 599/1/6 600/1/6
f 600/1/6 599/1/6 601/1/6
f 602/2/6 603/2/6 604/2/6
f 604/2/6 603/2/6 605/2/6
f 606/2/6 607/2/6 610/2/6
f 610/2/6 607/2/6 611/2/6
f 608/2/6 609/2/6 612/2/6
f 612/2/6 609/2/6 613/2/6
f 613/2/6 614/2/6 615/2/6
f 615/2/6 614/2/6 616/2/6
f 617/1/6 618/1/6 621/1/6
f 621/1/6 618/1/6 622/1/6
f 619/1/6 620/1/6 623/1/6
f 623/1/6 620/1/6 624/1/6
f 622/1/6 623/1/6 625/1/6
f 625/1/6 623/1/6 626/1/6
f 626/1/6 623/1/6 627/1/6
f 628/1/6 629/1/6 632/1/6
f 632/1/6 629/1/6 633/1/6
f 630/1/6 631/1/6 634/1/6
f 634/1/6 631/1/6 635/1/6
f 635/1/6 636/1/6 639/1/6
f 639/1/6 636/1/6 640/1/6
f 637/1/6 638/1/6 641/1/6
f 641/1/6 638/1/6 642/1/6
f 642/2/6 643/2/6 644/2/6
f 644/2/6 643/2/6 645/2/6
f 646/1/6 647/1/6 650/1/6
f 648/2/6 649/2/6 651/2/6
f 649/1/6 650/1/6 652/1/6
f 651/2/6 649/2/6 652/2/6
f 652/1/6 650/1/6 653/1/6
f 650/1/6 647/1/6 654/1/6
f 653/1/6 650/1/6 654/1/6
f 655/1/6 656/1/6 657/1/6
f 657/1/6 656/1/6 658/1/6
f 658/1/6 659/1/6 661/1/6
f 661/1/6 659/1/6 662/1/6
f 660/1/6 661/1/6 664/1/6
f 662/1/6 663/1/6 664/1/6
f 661/1/6 662/1/6 664/1/6
f 664/1/6 663/1/6 665/1/6
f 666/1/6 667/1/6 670/1/6
f 670/1/6 667/1/6 671/1/6
f 668/1/6 669/1/6 672/1/6
f 672/1/6 669/1/6 673/1/6
f 673/1/6 674/1/6 675/1/6
f 675/1/6 674/1/6 676/1/6
f 679/1/6 680/1/6 682/1/6
f 682/1/6 680/1/6 683/1/6
f 677/1/6 678/1/6 684/1/6
f 684/1/6 678/1/6 685/1/6
f 681/1/6 682/1/6 686/1/6
f 686/1/6 682/1/6 687/1/6
f 688/1/6 689/1/6 690/1/6
f 690/1/6 689/1/6 691/1/6
f 692/1/6 693/1/6 696/1/6
f 694/1/6 695/1/6 698/1/6
f 698/1/6 695/1/6 699/1/6
f 696/1/6 697/1/6 701/1/6
f 692/1/6 696/1/6 701/1/6
f 701/1/6 697/1/6 702/1/6
f 692/1/6 701/1/6 704/1/6
f 704/1/6 701/1/6 705/1/6
f 702/1/6 703/1/6 706/1/6
f 706/1/6 703/1/6 707/1/6
f 699/1/6 700/1/6 708/1/6
f 708/1/6 700/1/6 709/1/6
f 710/1/6 711/1/6 714/1/6
f 714/1/6 711/1/6 715/1/6
f 712/1/6 713/1/6 716/1/6
f 715/1/6 716/1/6 717/1/6
f 717/1/6 716/1/6 718/1/6
f 718/1/6 716/1/6 719/1/6
f 716/1/6 713/1/6 720/1/6
f 719/1/6 716/1/6 720/1/6
f 721/1/6 722/1/6 723/1/6
f 723/1/6 722/1/6 724/1/6
